<svg xmlns="http://www.w3.org/2000/svg" viewBox="0 0 143.81 89.57"><defs><style>.cls-1{fill:#fff;}.cls-2{fill:#e8e8e8;}.cls-3{fill:#f2f2f2;}.cls-4{fill:#fd8d8d;}.cls-5{fill:#7c7c7c;}.cls-6{fill:#88baff;}.cls-7{fill:#a3a3a3;}</style></defs><g id="Layer_2" data-name="Layer 2"><g id="Layer_1-2" data-name="Layer 1"><g id="Group_1053" data-name="Group 1053"><g id="Group_667" data-name="Group 667"><g id="Group_666" data-name="Group 666"><g id="Group_664" data-name="Group 664"><path id="Path_401" data-name="Path 401" class="cls-1" d="M132.81,89l.05-1.09a1.61,1.61,0,1,0-3.21-.24s0,0,0,.07l0,1.09-2.86-.15.06-1.09a1.61,1.61,0,1,0-3.21-.24s0,.05,0,.08l0,1.08-2.86-.14.06-1.09a1.61,1.61,0,1,0-3.21-.25.22.22,0,0,0,0,.08l0,1.09L114.59,88l.06-1.09a1.61,1.61,0,1,0-3.21-.25.22.22,0,0,0,0,.08l-.06,1.09-2.85-.15.06-1.09a1.61,1.61,0,0,0-3.22-.17l-.06,1.09-2.85-.15.06-1.09A1.61,1.61,0,0,0,99.29,86v.08l-.06,1.09-2.85-.15L96.44,86a1.61,1.61,0,0,0-3.22-.24v.08l-.06,1.08-2.85-.15.06-1.08a1.61,1.61,0,1,0-3.22-.25v.08l-.06,1.09-2.85-.15.06-1.09a1.61,1.61,0,0,0-3.22-.25v.08L81,86.26l-2.85-.15L78.23,85A1.61,1.61,0,0,0,75,84.77v.08L75,85.94l-1.9-.1.14-.51a1.61,1.61,0,0,0-1.11-2,2.25,2.25,0,0,0-.36-.06l-1.08-.06.15-2.85,1.08.06A1.61,1.61,0,1,0,72,77.22L71,77.16l.15-2.85,1.09.06a1.61,1.61,0,1,0,.17-3.22l-1.09-.06.15-2.85,1.09.06a1.61,1.61,0,0,0,.25-3.22h-.08L71.59,65l.15-2.85,1.09.06A1.61,1.61,0,0,0,73.08,59H73L71.91,59l.15-2.85,1.09,0a1.61,1.61,0,0,0,.17-3.21l-1.09-.06L72.38,50l1.08,0a1.6,1.6,0,0,0,1.66-1.56,1.62,1.62,0,0,0-1.49-1.66l-1.08,0L72.69,44l1.09.06A1.61,1.61,0,1,0,74,40.79l-1.09,0L73,37.88l1.09.06a1.61,1.61,0,0,0,.17-3.22l-1.09-.06.15-2.85,1.09.06a1.61,1.61,0,0,0,.17-3.22l-1.09-.06.15-2.85,1.09.06a1.61,1.61,0,0,0,.17-3.22l-1.09-.06L74,19.67l1.09.06a1.61,1.61,0,1,0,.24-3.22h-.08l-1.08-.06.15-2.85,1.08.06a1.61,1.61,0,0,0,.17-3.22l-1.09-.06.15-2.85,1.09,0a1.61,1.61,0,0,0,.17-3.21l-1.09-.06.09-1.76.6.32a1.48,1.48,0,0,0,.68.19,1.6,1.6,0,0,0,1.69-1.52L77.89.45,80.74.6l-.06,1.09a1.61,1.61,0,0,0,3.22.17L84,.77l2.85.15L86.75,2A1.61,1.61,0,0,0,90,2.18L90,1.09l2.85.15-.06,1.09A1.61,1.61,0,0,0,96,2.49l.06-1.08L99,1.55l-.06,1.09a1.61,1.61,0,0,0,3.22.17l.06-1.09,2.85.15L105,3a1.61,1.61,0,0,0,3.22.17L108.24,2l2.85.15L111,3.28a1.61,1.61,0,0,0,3.22.17l.06-1.09,2.85.15L117.1,3.6a1.61,1.61,0,0,0,3.22.17l.06-1.09,2.86.15-.06,1.09a1.6,1.6,0,0,0,1.52,1.69,1.62,1.62,0,0,0,1.7-1.53l0-1.08,2.86.15-.06,1.08a1.61,1.61,0,0,0,3.22.17l.06-1.09,2.85.15-.06,1.09a1.61,1.61,0,1,0,3.22.17l.06-1.09,2.55.14-.15.51a1.61,1.61,0,0,0,1.08,2,1.59,1.59,0,0,0,.38.06,1.53,1.53,0,0,0,.37,0l.53-.1-.18,3.43-1.09-.06a1.61,1.61,0,0,0-.17,3.22l1.09.06-.15,2.85-1.09-.06a1.62,1.62,0,0,0-1.69,1.53,1.6,1.6,0,0,0,1.53,1.69h0l1.08.06-.15,2.85-1.08-.05a1.61,1.61,0,1,0-.17,3.21h0l1.09.06-.15,2.85-1.09-.05A1.61,1.61,0,0,0,141,31l1.09,0-.15,2.85-1.09,0a1.61,1.61,0,0,0-.17,3.22l1.09,0L141.59,40,140.5,40a1.61,1.61,0,0,0-.17,3.22h0l1.09,0-.15,2.86L140.18,46a1.61,1.61,0,0,0-.17,3.22l1.09.06L141,52.15l-1.08-.06a1.61,1.61,0,0,0-.17,3.22l1.09.06-.15,2.85-1.09-.06a1.61,1.61,0,0,0-.17,3.22l1.09.06-.15,2.85-1.09-.06a1.61,1.61,0,0,0-.17,3.22l1.09.06L140,70.36l-1.09-.06a1.61,1.61,0,0,0-.17,3.22h0l1.09.06-.15,2.85-1.09-.06a1.61,1.61,0,0,0-.17,3.22l1.09.06-.15,2.85-1.09-.06a1.62,1.62,0,0,0-.66,3.12l.08,0c.15.06.52.2.44.57s-.48.37-.72.35A1.62,1.62,0,0,0,135.72,88l-.06,1.09Z"/></g><g id="Group_665" data-name="Group 665"><path id="Path_402" data-name="Path 402" class="cls-2" d="M140.59,4.16A2,2,0,0,0,141,6.09h0a2,2,0,0,0,1.41.67,1.83,1.83,0,0,0,.47,0l-.13,2.47-.66,0a2,2,0,1,0-.21,4.06l.66,0-.1,2-.67,0a2,2,0,1,0-.21,4.06l.66,0-.1,2-.67,0a2,2,0,0,0-.21,4.06l.66,0-.1,2-.66,0a2,2,0,0,0-.22,4.07l.67,0-.11,2-.66,0a2,2,0,0,0-.22,4.07l.67,0-.11,2-.66,0a2,2,0,0,0-.21,4.07l.66,0-.11,2-.66,0a2,2,0,0,0-2.14,1.93h0A2,2,0,0,0,140,49.66h0l.66,0-.1,2-.67,0a2,2,0,0,0-.21,4.07l.66,0-.1,2-.67,0a2,2,0,0,0-2.14,1.92h0a2,2,0,0,0,1.93,2.14h0l.67,0-.11,2-.66,0a2,2,0,0,0-2.14,1.92h0A2,2,0,0,0,139,67.87h0l.67,0-.11,2-.66,0a2,2,0,0,0-2.14,1.92h0a2,2,0,0,0,1.92,2.14h0l.67,0-.11,2-.66,0a2,2,0,0,0-2.14,1.92h0A2,2,0,0,0,138.4,80h0l.66,0-.1,2-.67,0a2,2,0,0,0-.84,3.93c.2.08.48.16,0,.13A2,2,0,0,0,135.29,88h0l0,.66-2-.1,0-.67a2,2,0,1,0-4.07-.21l0,.66-2-.1,0-.67a2,2,0,0,0-4.07-.21l0,.67-2-.11,0-.66a2,2,0,0,0-1.92-2.14h0a2,2,0,0,0-2.14,1.92h0l0,.67-2-.11,0-.66a2,2,0,0,0-1.92-2.14h0A2,2,0,0,0,111,86.73h0l0,.67-2-.11,0-.66a2,2,0,0,0-1.93-2.14h0a2,2,0,0,0-2.14,1.93h0l0,.66-2-.1,0-.67a2,2,0,1,0-4.06-.21l0,.66-2-.1,0-.67a2,2,0,0,0-1.92-2.14h0a2,2,0,0,0-2.14,1.93h0l0,.66-2-.1,0-.66a2,2,0,0,0-1.92-2.14h0a2,2,0,0,0-2.14,1.92h0l0,.67-2-.11,0-.66a2,2,0,0,0-4.06-.22l0,.67-2-.11,0-.66a2,2,0,0,0-4.07-.21l0,.66-1,0a2,2,0,0,0-1.41-2.5,2.14,2.14,0,0,0-.44-.08l-.66,0,.1-2,.66,0a2,2,0,1,0,.22-4.07h0l-.67,0,.11-2,.66,0a2,2,0,0,0,2.14-1.93h0a2,2,0,0,0-1.92-2.14h0l-.67,0,.11-2,.66,0a2,2,0,0,0,.22-4.07h0l-.66,0,.1-2,.67,0a2,2,0,0,0,2.14-1.93h0A2,2,0,0,0,73,58.58h0l-.66,0,.1-2,.67,0a2,2,0,0,0,2.14-1.93h0a2,2,0,0,0-1.93-2.14h0l-.66,0,.1-2,.67,0a2,2,0,0,0,2.13-1.93h0a2,2,0,0,0-1.92-2.14h0l-.67,0,.11-2,.66,0A2,2,0,0,0,74,40.37h0l-.67,0,.11-2,.66,0a2,2,0,0,0,.22-4.06h0l-.66,0,.11-2,.66,0a2,2,0,1,0,.22-4.06h0l-.66,0,.1-2,.67,0a2,2,0,1,0,.21-4.07h0l-.66,0,.1-2,.67,0a2,2,0,1,0,.21-4.07h0l-.66,0,.1-2,.66,0A2,2,0,1,0,75.56,10h0l-.67,0L75,8l.66,0a2,2,0,0,0,.22-4.07h0l-.67,0,0-.67A2,2,0,0,0,78,2.42a2,2,0,0,0,.25-.86l0-.67,2,.11,0,.66a2,2,0,0,0,4.07.22l0-.67,2,.11,0,.66a2,2,0,0,0,4.07.21l0-.66,2,.1,0,.67a2,2,0,1,0,4.06.21l0-.66,2,.1,0,.67a2,2,0,1,0,4.06.21l0-.66,2,.1,0,.67a2,2,0,1,0,4.06.21l0-.67,2,.11,0,.66a2,2,0,0,0,1.92,2.14h0a2,2,0,0,0,2.14-1.92h0l0-.67,2,.11,0,.66a2,2,0,0,0,1.93,2.14h0a2,2,0,0,0,2.14-1.93h0l0-.66,2,.11,0,.66A2,2,0,0,0,124.68,6h0a2,2,0,0,0,2.14-1.93h0l0-.66,2,.1,0,.67a2,2,0,1,0,4.06.21l0-.66,2,.1,0,.67a2,2,0,0,0,1.92,2.14h0A2,2,0,0,0,139,4.74h0l0-.66,1.59.08m1.12-.79-3.52-.19-.08,1.52a1.19,1.19,0,0,1-2.37-.13l.08-1.51-3.7-.2L132,4.38a1.19,1.19,0,0,1-2.37-.13l.08-1.51-3.7-.19L126,4.06a1.19,1.19,0,0,1-2.37-.13l.08-1.51L120,2.23l-.08,1.51a1.19,1.19,0,0,1-2.37-.12l.08-1.52-3.7-.19-.08,1.51a1.19,1.19,0,0,1-1.25,1.12,1.17,1.17,0,0,1-1.12-1.24l.08-1.52-3.71-.19-.07,1.51A1.19,1.19,0,0,1,105.38,3l.08-1.51-3.7-.2-.08,1.51a1.19,1.19,0,1,1-2.37-.12l.08-1.51L95.69,1l-.08,1.52a1.19,1.19,0,1,1-2.37-.13L93.32.83,89.62.64l-.08,1.51A1.19,1.19,0,1,1,87.17,2L87.25.51,83.55.32l-.08,1.51a1.19,1.19,0,0,1-2.37-.12L81.18.19,77.48,0,77.4,1.51a1.2,1.2,0,0,1-1.25,1.13,1.08,1.08,0,0,1-.5-.15l-1.18-.64-.15,2.86,1.51.08a1.19,1.19,0,1,1-.13,2.37l-1.51-.08L74,10.78l1.51.08a1.19,1.19,0,0,1-.12,2.37l-1.52-.08-.19,3.7,1.51.08a1.19,1.19,0,1,1-.12,2.37h0l-1.51-.08-.2,3.7,1.51.08A1.2,1.2,0,0,1,76,24.25a1.19,1.19,0,0,1-1.25,1.12l-1.51-.08L73,29l1.52.07a1.19,1.19,0,0,1-.13,2.38l-1.51-.08-.19,3.7,1.51.08a1.19,1.19,0,0,1-.13,2.37l-1.51-.08-.19,3.7,1.51.08a1.19,1.19,0,1,1-.13,2.37l-1.51-.08-.19,3.7,1.51.08a1.19,1.19,0,0,1-.12,2.37L72,49.58l-.19,3.7,1.51.08a1.19,1.19,0,1,1-.12,2.37l-1.51-.08-.2,3.7,1.51.08a1.2,1.2,0,0,1,1.13,1.25,1.19,1.19,0,0,1-1.25,1.12l-1.51-.08-.2,3.71,1.52.08a1.19,1.19,0,0,1-.13,2.37L71,67.8l-.19,3.7,1.51.08A1.19,1.19,0,0,1,72.2,74l-1.51-.08-.19,3.7,1.51.08A1.19,1.19,0,0,1,71.89,80l-1.52-.08-.19,3.7,1.51.08A1.17,1.17,0,0,1,72.81,85a.73.73,0,0,1,0,.25l-.28,1,2.86.15.07-1.51A1.19,1.19,0,0,1,77.8,85l-.08,1.52,3.7.19.08-1.51a1.19,1.19,0,0,1,1.24-1.13,1.2,1.2,0,0,1,1.13,1.25l-.08,1.51,3.7.2.08-1.51a1.19,1.19,0,1,1,2.37.12l-.08,1.51,3.7.2.08-1.52A1.19,1.19,0,1,1,96,86l-.08,1.51,3.7.19.08-1.51a1.19,1.19,0,1,1,2.37.13L102,87.79l3.7.19.08-1.51A1.19,1.19,0,0,1,107,85.35a1.17,1.17,0,0,1,1.12,1.24l-.08,1.52,3.71.19.07-1.51a1.19,1.19,0,0,1,2.38.12l-.08,1.51,3.7.2.08-1.51A1.19,1.19,0,0,1,119.17,86a1.2,1.2,0,0,1,1.13,1.25l-.08,1.51,3.7.2.08-1.52a1.19,1.19,0,1,1,2.37.13l-.08,1.51,3.7.19.08-1.51a1.19,1.19,0,1,1,2.37.13l-.08,1.51,3.7.19.08-1.51a1.19,1.19,0,0,1,1.25-1.12c.1,0,.2,0,.31,0a.87.87,0,0,0,.31-1.68l-.18-.07-.07,0a1.2,1.2,0,0,1-.68-1.54,1.18,1.18,0,0,1,1.17-.75l1.51.08.2-3.71-1.51-.07a1.19,1.19,0,1,1,.12-2.38l1.51.08.2-3.7-1.52-.08a1.19,1.19,0,0,1,.13-2.37l1.51.08.19-3.7L139.08,67a1.19,1.19,0,1,1,.13-2.37l1.51.08.19-3.7L139.4,61a1.19,1.19,0,0,1,.12-2.37l1.52.08.19-3.71-1.51-.08a1.17,1.17,0,0,1-1.12-1.24,1.19,1.19,0,0,1,1.24-1.13l1.52.08.19-3.7L140,48.81a1.19,1.19,0,0,1-1.13-1.24,1.2,1.2,0,0,1,1.25-1.13l1.51.08.2-3.7-1.51-.08a1.19,1.19,0,1,1,.12-2.37l1.51.08.2-3.7-1.52-.08a1.19,1.19,0,1,1,.13-2.37l1.51.08.19-3.7L141,30.6a1.19,1.19,0,1,1,.13-2.37l1.51.08.19-3.7-1.51-.08a1.19,1.19,0,0,1,.12-2.37l1.52.08.19-3.7-1.51-.08a1.2,1.2,0,0,1-1.13-1.25,1.19,1.19,0,0,1,1.25-1.12l1.51.08.2-3.7L142,12.39a1.2,1.2,0,0,1-1.13-1.25A1.19,1.19,0,0,1,142.07,10l1.51.07.23-4.39-1.05.19a.9.9,0,0,1-.28,0,1.17,1.17,0,0,1-1.12-1.24,1.26,1.26,0,0,1,0-.28l.31-1Z"/></g></g></g><g id="Group_668" data-name="Group 668"><rect id="Rectangle_291" data-name="Rectangle 291" class="cls-3" x="105.44" y="-9.24" width="5.91" height="54.46" transform="translate(84.75 125.3) rotate(-87)"/></g><g id="Group_1054" data-name="Group 1054"><rect id="Rectangle_291-2" data-name="Rectangle 291-2" class="cls-4" x="105.75" y="-15.14" width="5.91" height="54.46" transform="translate(90.94 120.01) rotate(-87)"/></g><g id="Group_669" data-name="Group 669"><rect id="Rectangle_292" data-name="Rectangle 292" class="cls-4" x="117.14" y="9.33" width="5.91" height="30.4" transform="translate(89.32 143.18) rotate(-87)"/></g><g id="Group_670" data-name="Group 670"><rect id="Rectangle_293" data-name="Rectangle 293" class="cls-3" x="104.82" y="2.57" width="5.91" height="54.46" transform="translate(72.37 135.87) rotate(-87)"/></g><g id="Group_671" data-name="Group 671"><rect id="Rectangle_294" data-name="Rectangle 294" class="cls-4" x="104.51" y="8.47" width="5.91" height="54.46" transform="translate(66.18 141.15) rotate(-87)"/></g><g id="Group_672" data-name="Group 672"><rect id="Rectangle_295" data-name="Rectangle 295" class="cls-3" x="104.2" y="14.38" width="5.91" height="54.46" transform="translate(59.99 146.44) rotate(-87)"/></g><g id="Group_673" data-name="Group 673"><rect id="Rectangle_296" data-name="Rectangle 296" class="cls-4" x="103.89" y="20.28" width="5.91" height="54.46" transform="translate(53.81 151.73) rotate(-87)"/></g><g id="Group_674" data-name="Group 674"><rect id="Rectangle_297" data-name="Rectangle 297" class="cls-3" x="103.58" y="26.19" width="5.91" height="54.46" transform="translate(47.62 157.01) rotate(-87)"/></g><g id="Group_675" data-name="Group 675"><rect id="Rectangle_298" data-name="Rectangle 298" class="cls-4" x="103.27" y="32.09" width="5.91" height="54.46" transform="translate(41.43 162.3) rotate(-87)"/></g><g id="Group_676" data-name="Group 676"><rect id="Rectangle_299" data-name="Rectangle 299" class="cls-3" x="89.36" y="50.9" width="5.91" height="27.23" transform="translate(23.06 153.33) rotate(-87)"/></g><g id="Group_677" data-name="Group 677"><rect id="Rectangle_300" data-name="Rectangle 300" class="cls-4" x="89.06" y="56.8" width="5.91" height="27.23" transform="translate(16.88 158.62) rotate(-87)"/></g><g id="Group_678" data-name="Group 678"><rect id="Rectangle_301" data-name="Rectangle 301" class="cls-3" x="88.75" y="62.7" width="5.91" height="27.23" transform="translate(10.69 163.9) rotate(-87)"/></g><g id="Group_679" data-name="Group 679"><path id="Path_403" data-name="Path 403" class="cls-5" d="M110.37,70.68l.18-3.53,1.62.08-.18,3.5a.89.89,0,1,0,1.78.17v-.08l.19-3.49,1.62.08-.19,3.53a2.52,2.52,0,0,1-5-.26Z"/><path id="Path_404" data-name="Path 404" class="cls-5" d="M117.46,71.42l1.64.08a.61.61,0,0,0,.57.65h.08c.33,0,.65-.14.67-.46s-.42-.49-1-.65c-.82-.25-1.87-.56-1.8-1.87.06-1.13.93-1.74,2.28-1.67s2.14.82,2.08,2l-1.59-.08a.54.54,0,0,0-.5-.57h-.08c-.28,0-.56.09-.57.36s.41.45,1,.62c.83.26,1.92.6,1.86,1.92s-1.07,1.86-2.41,1.79S117.4,72.67,117.46,71.42Z"/><path id="Path_405" data-name="Path 405" class="cls-5" d="M127.47,72.87l-2-.11-.37.92-1.7-.09L125.93,68l1.55.08,2,5.88-1.75-.09Zm-.87-3.08-.72,1.75,1.27.07Z"/></g><g id="Group_680" data-name="Group 680"><path id="Path_406" data-name="Path 406" class="cls-5" d="M110.65,75.16l0,.43.87,0,0,.66-.88,0,0,1-.76,0,.14-2.74,1.74.1,0,.68Z"/><path id="Path_407" data-name="Path 407" class="cls-5" d="M112.21,75.93a1.51,1.51,0,1,1,1.5,1.51h-.07a1.41,1.41,0,0,1-1.43-1.4Zm2.22.11a.71.71,0,0,0-.69-.74.72.72,0,0,0-.06,1.44.7.7,0,0,0,.76-.63V76Z"/><path id="Path_408" data-name="Path 408" class="cls-5" d="M117,76.71l-.28,0,0,.84-.75,0,.14-2.73,1.19.06a1,1,0,0,1,1,.94s0,0,0,.08a.88.88,0,0,1-.47.75l.49,1-.84-.05Zm-.24-.65.34,0a.3.3,0,1,0,.11-.59h-.42Z"/><path id="Path_409" data-name="Path 409" class="cls-5" d="M120.78,77.09l0,.66-1.78-.1.14-2.73,1.75.09,0,.65-1-.06,0,.4.9,0,0,.62-.9,0,0,.41Z"/><path id="Path_410" data-name="Path 410" class="cls-5" d="M124.26,75.19l-1.19,2.68-.7,0L121.45,75l.86,0,.47,1.73.63-1.67Z"/><path id="Path_411" data-name="Path 411" class="cls-5" d="M126.6,77.4l0,.65L124.79,78l.14-2.74,1.75.09,0,.65-1,0,0,.4.89,0,0,.61-.9,0,0,.41Z"/><path id="Path_412" data-name="Path 412" class="cls-5" d="M128.46,77.31h-.27l-.05.83-.75,0,.14-2.73,1.19.06a1,1,0,0,1,1,.94v.08a.86.86,0,0,1-.48.75l.49,1-.84,0Zm-.24-.65.35,0a.3.3,0,0,0,.35-.24.3.3,0,0,0-.25-.35h-.42Z"/></g><g id="Group_681" data-name="Group 681"><rect id="Rectangle_302" data-name="Rectangle 302" class="cls-6" x="81.24" y="8.12" width="23.65" height="24.06" transform="translate(68.07 112.03) rotate(-87)"/></g><g id="Group_682" data-name="Group 682"><path id="Path_413" data-name="Path 413" class="cls-1" d="M93.53,11.18l1.91,7.13,7.37.39-6.19,4,1.91,7.13L92.8,25.2l-6.19,4,2.64-6.89-5.74-4.64,7.37.39Z"/></g><g id="Group_1052" data-name="Group 1052"><g id="Group_684" data-name="Group 684"><path id="Path_415" data-name="Path 415" class="cls-7" d="M77.08,20.73h0a.17.17,0,0,1,0,.07h.1l-.06-.08S77.1,20.74,77.08,20.73Z"/></g><g id="Group_685" data-name="Group 685"><path id="Path_416" data-name="Path 416" class="cls-7" d="M80.86,25h0l0,.18-.11.15h0a25.8,25.8,0,0,1,3.92,5.2l-.12-.36.13,0a.52.52,0,0,1,.14-.39l.18-.21.29.11a.82.82,0,0,1,.2.12l.1-.2c-.34-.58-.7-1.15-1.08-1.69l-.1,0H84l0-.34a.46.46,0,0,1,.08-.34c-.22-.3-.46-.61-.7-.9l-.07,0h0l.29.42-.53,0a.32.32,0,0,1-.1.1.48.48,0,0,1-.23.1.51.51,0,0,1-.24,0l-.21-.08-.06-.46.09-.12a.47.47,0,0,1,.27-.18l.07-.2L83,26l.11,0V26c-.44-.53-.91-1-1.4-1.54l-.3,0v-.26a.17.17,0,0,0,0-.05l-.19-.18-.1,0C80.7,24.14,80.75,24.64,80.86,25Z"/></g><g id="Group_687" data-name="Group 687"><path id="Path_418" data-name="Path 418" class="cls-7" d="M79.27,22.75h0l-.1.22h-.33a.17.17,0,0,0,0,.05l0,0L79,23l.11.34a.53.53,0,0,1,0,.44h0c.22.18.44.38.65.58,0-.07,0-.14.07-.22a3.29,3.29,0,0,1,.21-.6.59.59,0,0,1,0-.59s0,0,0,0l-.21-.18-.23.29Z"/></g><g id="Group_688" data-name="Group 688"><path id="Path_419" data-name="Path 419" class="cls-7" d="M76.25,21.11v0s0,0,0,0L76.15,21a.17.17,0,0,0,.1.12Z"/></g><g id="Group_689" data-name="Group 689"><path id="Path_420" data-name="Path 420" class="cls-7" d="M88.16,39.16a.1.1,0,0,0,0-.06h0Z"/></g><g id="Group_690" data-name="Group 690"><path id="Path_421" data-name="Path 421" class="cls-7" d="M78,22.13h0l-.09,0s0,0-.07,0a.18.18,0,0,0-.08.11h0l0,0h0a.19.19,0,0,1,.13,0h0Z"/></g><g id="Group_691" data-name="Group 691"><path id="Path_422" data-name="Path 422" class="cls-7" d="M54.61,52.26h0l.07,0,.22-.1s0-.07,0-.1A.42.42,0,0,1,54.61,52.26Z"/></g><g id="Group_692" data-name="Group 692"><path id="Path_423" data-name="Path 423" class="cls-7" d="M48.82,51.1a.4.4,0,0,1,.21-.25l0-.12s0,0,0,0l-.27.13-.35.13.42.24Z"/></g><g id="Group_693" data-name="Group 693"><path id="Path_424" data-name="Path 424" class="cls-7" d="M59.73,66.5l-.06.26a.36.36,0,0,1-.13.23.08.08,0,0,1,0,0,24,24,0,0,0,11.76-1.6L70.84,65a23.28,23.28,0,0,1-11.11,1.48Z"/></g><g id="Group_694" data-name="Group 694"><path id="Path_425" data-name="Path 425" class="cls-7" d="M38.62,44.73a.71.71,0,0,1,.28-.06H39c0-.51,0-1,0-1.53a.77.77,0,0,1-.27.08h-.14l-.14,0c0,.53,0,1.06,0,1.58Z"/></g><g id="Group_695" data-name="Group 695"><path id="Path_426" data-name="Path 426" class="cls-7" d="M47.32,50.26l-.07,0,.11.08Z"/></g><g id="Group_696" data-name="Group 696"><path id="Path_427" data-name="Path 427" class="cls-7" d="M34.6,62.05a10.42,10.42,0,0,1,4.21-3.25.39.39,0,0,1-.15,0h0l-.68.35.27-.73a11.33,11.33,0,0,0-4.06,3.24A10.26,10.26,0,0,1,29.86,65a.69.69,0,0,1-.05.13.3.3,0,0,1-.32.1.26.26,0,0,1-.16.07.32.32,0,0,1-.25-.07l-.52.11.05.26-.35,0a.34.34,0,0,1-.32-.19l-.13,0a8.48,8.48,0,0,1-6.1-1.49.3.3,0,0,1-.16,0l.06.21-.37,0a.36.36,0,0,1-.24-.07l-.05,0A9.29,9.29,0,0,0,27.87,66C31.43,65.55,33,63.77,34.6,62.05Z"/></g><g id="Group_697" data-name="Group 697"><path id="Path_428" data-name="Path 428" class="cls-7" d="M38.5,42.54l0,0a.62.62,0,0,1,.63,0,8.61,8.61,0,0,1,3,.12h.29l-.06.06a11.89,11.89,0,0,1,3.84,2c.36.25.77.53,1.19.78l.09,0v0a11.54,11.54,0,0,0,1.29.7l0,0v0a13.53,13.53,0,0,0,2.23,5l.13.19-.22-.06a7,7,0,0,1-1.17-.4h0v0h-.16a.19.19,0,0,1,0,.07.43.43,0,0,1,0,.16l.15.12-.11.17a7.78,7.78,0,0,0,2,.57h0l0,0a13.71,13.71,0,0,0,1.24,1.29l.13,0a.85.85,0,0,1,.23,0,1.85,1.85,0,0,1,.46.08l.06,0a14.2,14.2,0,0,1-1.2-1.13l-.14-.15h.2a9.4,9.4,0,0,0,1.19,0h.07l0,.06a.57.57,0,0,0,.12.18l0,0v-.14l.28-.07.08,0h0l-.23-.06L54.19,52a.45.45,0,0,1,0-.23l0-.1a9.35,9.35,0,0,1-2.18,0h0l0,0a13,13,0,0,1-2.49-5l0-.16.15.05a6,6,0,0,0,.64.2.69.69,0,0,1,0-.13l0-.3.09,0,0,0,0-.07-.27-.08a.54.54,0,0,1-.11.18l-.09.08-.12,0a.45.45,0,0,1-.51-.32.55.55,0,0,1,.11-.49c0-.11,0-.22,0-.34L49,45.09,49,45l-.07,0-.15.07-.19.1,0,.19,0,.16-.15-.07a22.12,22.12,0,0,1-2-1.27,14.6,14.6,0,0,0-3.3-1.83l-.08,0v0H43l0,.1a.34.34,0,0,1-.25.18h-.1l-.25,0,0-.26a.35.35,0,0,1,0-.17.38.38,0,0,1-.21,0l-.28,0v-.1A9,9,0,0,0,39.61,42a.55.55,0,0,1-.14.22.54.54,0,0,1-.52.06l-.22-.08-.11.1a.42.42,0,0,1-.17.1A.45.45,0,0,1,38.5,42.54Z"/></g><g id="Group_698" data-name="Group 698"><path id="Path_429" data-name="Path 429" class="cls-7" d="M32.6,58.23l-.12-.47-.1-.07v0a9,9,0,0,1-1.25,1,.36.36,0,0,1,.22.38.32.32,0,0,1-.28.27h0a.36.36,0,0,1-.33-.34v0a8.51,8.51,0,0,1-3.53,1.16,8.15,8.15,0,0,1-5.29-1,.5.5,0,0,1-.41.08l-.17.22a8.85,8.85,0,0,0,5.94,1.25A8.68,8.68,0,0,0,32.6,58.23Z"/></g><g id="Group_699" data-name="Group 699"><path id="Path_430" data-name="Path 430" class="cls-7" d="M47.77,50.58l0,0h-.07Z"/></g><g id="Group_700" data-name="Group 700"><path id="Path_431" data-name="Path 431" class="cls-7" d="M50,58.75v0l0,.15.06,0,.14,0a1.07,1.07,0,0,1,.47,0,1.51,1.51,0,0,1,.09-.18Z"/></g><g id="Group_701" data-name="Group 701"><path id="Path_432" data-name="Path 432" class="cls-7" d="M27.1,54.92h.06l0,0h0l0,0h-.11Z"/></g><g id="Group_702" data-name="Group 702"><path id="Path_433" data-name="Path 433" class="cls-7" d="M29,54.35l0-.05a6.47,6.47,0,0,1-.84.3l.06,0,.15.16-.09.2a.32.32,0,0,1-.29.18l0,0a8.79,8.79,0,0,0,1.47-.5Z"/></g><g id="Group_703" data-name="Group 703"><path id="Path_434" data-name="Path 434" class="cls-7" d="M48.26,50.89l0-.25-.3,0Z"/></g><g id="Group_704" data-name="Group 704"><path id="Path_435" data-name="Path 435" class="cls-7" d="M50,56.07l.08.07.1,0Z"/></g><g id="Group_706" data-name="Group 706"><path id="Path_437" data-name="Path 437" class="cls-7" d="M37.26,42.65l.09.26.3-.09,0,0v-.16a.44.44,0,0,1,.15-.39l-.63.17h0A.72.72,0,0,1,37.26,42.65Z"/></g><g id="Group_707" data-name="Group 707"><path id="Path_438" data-name="Path 438" class="cls-7" d="M50.91,56.51h0s0,0,0,0Z"/></g><g id="Group_708" data-name="Group 708"><path id="Path_439" data-name="Path 439" class="cls-7" d="M27.37,54.79a.43.43,0,0,1,.16,0l0,0-.2,0Z"/></g><g id="Group_709" data-name="Group 709"><path id="Path_440" data-name="Path 440" class="cls-7" d="M26.33,55.33l.36,0v0a.33.33,0,0,1,.06-.22l-.1,0,.16,0,.07-.05h0l.12-.12-.47.07A8.86,8.86,0,0,1,20,53.11h-.32c0,.05,0,.1,0,.14a2.74,2.74,0,0,1,.09.39,9.27,9.27,0,0,0,6.84,1.82h.05Z"/></g><g id="Group_710" data-name="Group 710"><path id="Path_441" data-name="Path 441" class="cls-7" d="M38.71,41.8h0v0Z"/></g><g id="Group_711" data-name="Group 711"><path id="Path_442" data-name="Path 442" class="cls-7" d="M27.73,55.28l0,0,0,0Z"/></g><g id="Group_712" data-name="Group 712"><path id="Path_443" data-name="Path 443" class="cls-7" d="M42.3,60.67v0a1.39,1.39,0,0,1,.65-.3,23.75,23.75,0,0,1-1.6-2l-.09-.12h.15a8.74,8.74,0,0,1,2.34.11h0l0,0,.41.49a.3.3,0,1,1,.44.41h0l0,0h0a24,24,0,0,0,14,7.55.49.49,0,0,1,0-.17l-.11-.31.31,0a23.3,23.3,0,0,1-10.33-4.32.38.38,0,0,1-.28.17H48l-.31,0v-.31a.38.38,0,0,1,.11-.3,22.53,22.53,0,0,1-2.89-2.72l-.23-.26.32.12a10.66,10.66,0,0,1,1.59.78l.32-.27.14-.1a9.61,9.61,0,0,0-3-1.25h0l0,0a23.67,23.67,0,0,1-2.94-4.75L41.08,53h.13a8,8,0,0,1,4,.87v-.08l.45.09a.44.44,0,0,1,.37.45c.46.28.92.59,1.35.89l.24.16L46,57.25l.46.41.83-.9.77.7a2,2,0,0,0,1.2.57,1.33,1.33,0,0,0,1-.46,1.49,1.49,0,0,0,.31-.51l0-.09.08,0a5.39,5.39,0,0,0,.68.22l.27.07-.27.09a2,2,0,0,0-.83.54l.12.06a.37.37,0,0,1,.17.32v.23a1.58,1.58,0,0,1,2.68,1.68,1.52,1.52,0,0,1-2,.67l-.35.09.06-.25a1.56,1.56,0,0,1-.64-.94l0,0,0,0-.33,0-.26,0a2.19,2.19,0,0,0,1.14,1.59,3.16,3.16,0,0,0,.5.22.37.37,0,0,1,.2-.07l.54-.09,0,.26A2,2,0,0,0,54,60.52a2.08,2.08,0,0,0-.76-2.85h0L53,57.49h.32a10.39,10.39,0,0,0,1.58-.07.3.3,0,0,0,.25-.31.28.28,0,0,0-.31-.24h0a9.48,9.48,0,0,1-2.13,0,.45.45,0,0,1-.25.18l-.2,0L52.1,57a.37.37,0,0,1-.12-.2,8.68,8.68,0,0,1-1-.27l-.17.07,0,0,.33.06-.47,0-.13.05a.51.51,0,0,1-.32.08h0l-.25.32-.07,0a.37.37,0,0,1-.15.13l-.31.17h0a1.09,1.09,0,0,1-1.06-.35l-.06,0,0,0v0l-.65-.59.62-.68.07,0c.18.13.36.24.52.34l.09-.11.18.14h0l.46.26.13-.06.15-.18.14.11.1-.09L49.82,56l-.07,0h0l-.28-.15c-.26-.15-.54-.32-.85-.52l-.09-.05.26-.28.78.71.3.29h.4l.12,0a2.43,2.43,0,0,0-.5-.61l-.46-.42a.83.83,0,0,1-.34.1.57.57,0,0,1-.42-.09l-.23-.16.09-.26a.56.56,0,0,1,.17-.26l0,0-.66.71-.3-.2a16.64,16.64,0,0,0-2.66-1.58s0,0,0,0l-.08.09-.11,0-.09,0a.48.48,0,0,1-.35-.08.6.6,0,0,1-.22-.43,9,9,0,0,0-2.57-.4l-1.14.47a1.18,1.18,0,0,1-.4.1,1.47,1.47,0,0,1-1.1-.26l-.59.16-.08,0,0-.08A26.28,26.28,0,0,1,37,48.59l0-.07.07,0A8.39,8.39,0,0,1,38.8,48l.08,0,0,.08a24.06,24.06,0,0,0,1.23,4.17h.19l.39,0a22.94,22.94,0,0,1-1.27-4.21l0-.09h.12l.18,0c3.35-.4,5.17.84,7.08,2.15l.1.07a.74.74,0,0,1-.09-.33.71.71,0,0,1,.07-.35l-.14-.1a9.56,9.56,0,0,0-5.83-2.06l0,.15-.43-.08h0l-.2.26-.09-.3-.54,0-.25,0h-.08l0-.08c-.06-.38-.12-.76-.16-1.13s-.06-.53-.08-.8l-.08,0a.24.24,0,0,1-.12,0,.44.44,0,0,1-.36-.12l.09.9c0,.38.1.77.17,1.16v.08l-.08,0a8.26,8.26,0,0,0-1.69.52l-.1,0,0-.1,0-.08,0,0a.46.46,0,0,1-.28.17.38.38,0,0,1-.21,0,.41.41,0,0,1,.22-.78h.09l.08,0,0,.05q-.07-.45-.12-.9a24.68,24.68,0,0,1-.18-3.1v-.05l0,0,.37-.14a.56.56,0,0,1-.47-.43l-.13-.37.2,0c0-.1,0-.21,0-.32h0l0,.18-.19.06a.4.4,0,0,1-.21.09l-.33,0,0-.3v0a.48.48,0,0,1,.07-.39l.14-.18.21.08a.5.5,0,0,1,.2.15v0a.86.86,0,0,1,0-.42.27.27,0,0,0,0-.12l-.06-.66a.27.27,0,0,1-.11-.18l0-.05,0,0s0,0,0-.06l-.09-.36h.1a.44.44,0,0,1,0-.47l.14-.27v-.23l.42.36h0c0-.06,0-.13,0-.2h0a.66.66,0,0,1-.49-.2.79.79,0,0,1-.23-.43l-.1.05-.13-.25a.2.2,0,0,1,0-.08l-.13.08,0,.11-.06.29a.42.42,0,0,1,.1.38.35.35,0,0,1-.1.2.83.83,0,0,1,0,.15l0,.28-.24.05a25.49,25.49,0,0,0-.27,3.7v.05l0,0a8.9,8.9,0,0,0-1.15.87h.1l0,.16h0L34.9,44l-.15.3.34-.26.13-.09v.16c0,.82.09,1.64.18,2.44s.19,1.34.32,2v.06l0,0a14.41,14.41,0,0,0-2.75,2.54A11.71,11.71,0,0,1,29.57,54l.25.2-.35.46a8,8,0,0,0,1.44-.84l0-.05a.36.36,0,0,1,0-.32.42.42,0,0,1,.28-.14l0,0v0h0l.6-.27h0c.54-.5,1-1,1.5-1.55a19.54,19.54,0,0,1,1.81-1.83.83.83,0,0,1,0-.15l.1-.3.25.1h.05l.15-.11.1-.08,0,.13a27.06,27.06,0,0,0,1.24,4l0,.07-.07,0-.15.08.08,0,.16.13-.06.2a.4.4,0,0,1-.23.26l-.09,0a.5.5,0,0,1-.29-.07L36.36,54v-.17c-.19.12-.37.25-.54.38v.14l-.22,0c-.22.18-.44.37-.66.58H35l.08.22a.35.35,0,0,1-.09.4.38.38,0,0,1-.23.11.34.34,0,0,1-.2,0,.39.39,0,0,1-.16-.15c-.3.31-.59.63-.85.91l-.72.8a.44.44,0,0,1,.36.1l.12.12h0l.08-.06v-.05l0-.46.4.15.21-.24c.45-.49.91-1,1.41-1.47h-.07l0-.28a.34.34,0,0,1,.1-.3.36.36,0,0,1,.3-.08l.29,0v.12l.34-.26a.37.37,0,0,1,.38-.35l.08,0h0c.16-.1.32-.18.48-.27l.08,0,0,.09A27,27,0,0,0,39,57.06l0-.32a.35.35,0,0,1,0-.17l-.05-.19.34,0h.1l.08-.1.08.07.22-.09,0,.24.2.16-.37.48-.11-.1-.12,0-.31.13c.14.25.3.5.45.74l.07.1-.12,0-.38.11a.21.21,0,0,1,.1.06l.09.06.23,0-.15.13,0,0h0l0,0a.37.37,0,0,1-.12.2l.66-.19h.06l0,.05.12.17a.58.58,0,0,1,.19,0,.42.42,0,0,1,.37.29.4.4,0,0,1-.1.39c.4.55.82,1.08,1.25,1.58l.05,0h0Zm-6.73-20a.35.35,0,0,1-.13-.33l0-.24.61-.07.08.61-.23.08-.1,0h0a.31.31,0,0,1-.21-.07Zm.94,8.87h-.08l-.08,0a.43.43,0,0,1-.28-.38.41.41,0,0,1,.2-.41l.07,0h0a.39.39,0,0,1,.44.33h0a.43.43,0,0,1-.32.49Zm1.11,3.6-.47-.38.37-.48.47.38Zm3.28,4.66,0,0a25.84,25.84,0,0,1-2.28-4.2l0-.09.09,0a11,11,0,0,1,1.71-.35h.15l0,.05a24,24,0,0,0,2.65,4.5l.11.15-.19,0a10.83,10.83,0,0,0-2.13,0Z"/></g><g id="Group_713" data-name="Group 713"><path id="Path_444" data-name="Path 444" class="cls-7" d="M45.6,64a.11.11,0,0,0,.08,0,.13.13,0,0,0,0-.07.17.17,0,0,1-.1,0Z"/></g><g id="Group_714" data-name="Group 714"><path id="Path_445" data-name="Path 445" class="cls-7" d="M53.55,18.37h-.1a.19.19,0,0,0,.16.11.16.16,0,0,0,.1,0l-.08-.05A.12.12,0,0,1,53.55,18.37Z"/></g><g id="Group_715" data-name="Group 715"><path id="Path_446" data-name="Path 446" class="cls-7" d="M80.67,62.3h0l0,0h0Z"/></g><g id="Group_716" data-name="Group 716"><path id="Path_447" data-name="Path 447" class="cls-7" d="M45,64.15Z"/></g><g id="Group_717" data-name="Group 717"><path id="Path_448" data-name="Path 448" class="cls-7" d="M80.77,62.6h0Z"/></g><g id="Group_718" data-name="Group 718"><path id="Path_449" data-name="Path 449" class="cls-7" d="M40.21,58.89h-.06l0,0Z"/></g><g id="Group_719" data-name="Group 719"><path id="Path_450" data-name="Path 450" class="cls-7" d="M72.86,19.75a.08.08,0,0,1,0,0l.09.05a.22.22,0,0,0,0-.11h-.06Z"/></g><g id="Group_720" data-name="Group 720"><path id="Path_451" data-name="Path 451" class="cls-7" d="M72.74,19.75h0Z"/></g><g id="Group_721" data-name="Group 721"><path id="Path_452" data-name="Path 452" class="cls-7" d="M79.14,22.15h0Z"/></g><g id="Group_722" data-name="Group 722"><path id="Path_453" data-name="Path 453" class="cls-7" d="M78,22.64a.44.44,0,0,1-.37,0l.32.24A.46.46,0,0,1,78,22.64Z"/></g><g id="Group_723" data-name="Group 723"><path id="Path_454" data-name="Path 454" class="cls-7" d="M73.39,19.3a.54.54,0,0,1-.25.35.41.41,0,0,1,0,.29c.42.19.84.4,1.26.62h.08a.24.24,0,0,1,.08-.06l-.09-.34.42-.05a.41.41,0,0,1,.38.13.38.38,0,0,1,.09.3l.29.54-.42,0,.1.06.06,0,.48-.05-.2.22c.64.39,1.28.82,1.9,1.27a.39.39,0,0,1-.1-.47l.06-.15.16-.06a.49.49,0,0,1,.24,0v0l.5.1a.61.61,0,0,0,.27,0l.12,0c-.45-.35-.92-.69-1.4-1a.38.38,0,0,1-.35.14.2.2,0,0,1,0,.08.55.55,0,0,1-.37.22l-.11,0,0,.06-.21,0a.41.41,0,0,1-.36-.39l-.08-.31.31-.11a.39.39,0,0,1,.21,0l0,0a.48.48,0,0,1,.35-.09c-.69-.44-1.41-.85-2.14-1.22h-.14a.42.42,0,0,1-.39-.26l-.38-.18a.58.58,0,0,1,0,.26A.55.55,0,0,1,73.39,19.3Z"/></g><g id="Group_724" data-name="Group 724"><path id="Path_455" data-name="Path 455" class="cls-7" d="M86.18,55.25a.47.47,0,0,1-.34-.19l-.34.08V54.6c-.21.43-.43.86-.67,1.28a.35.35,0,0,1,.23.12l.17.18-.11.25a.37.37,0,0,1-.3.21h-.12l-.3,0A25.19,25.19,0,0,1,81.11,61l0,.38a.42.42,0,0,1,0,.48L81,61.9l-.1,0-.11,0a.46.46,0,0,1-.3-.08h-.33c-.21.21-.41.4-.61.58v.13l.22,0v.18l.13.05L80,63a.31.31,0,0,1,0,.08.41.41,0,0,1,.06.32l0,.11a.46.46,0,0,1,.3-.19l.58-.5v.1a27.28,27.28,0,0,0,5.54-7.51l-.14-.08A.48.48,0,0,1,86.18,55.25Zm-5,7.2a.5.5,0,0,1-.28.39l-.13,0h0a.48.48,0,0,1-.28-.1l-.19-.15.06-.23a.48.48,0,0,1,.31-.34.44.44,0,0,1,.42.07l.16.13Z"/></g><g id="Group_725" data-name="Group 725"><path id="Path_456" data-name="Path 456" class="cls-7" d="M45.26,64.37v-.08l0,0Z"/></g><g id="Group_726" data-name="Group 726"><path id="Path_457" data-name="Path 457" class="cls-7" d="M80,63.71a.4.4,0,0,1,0-.15H80l-.08.16h-.23a.37.37,0,0,1-.25-.09l-.29.12,0-.47h0A.4.4,0,0,1,79,63c-.33.28-.68.56-1,.84l.06.3-.33.1-.12,0h-.18l-.68.48h0l.08,0,0,.72h-.17l.07.16-.74-.2a.44.44,0,0,1-.19-.1,25.79,25.79,0,0,1-20.6,2.77l-.32,0V68L54,67.78a.55.55,0,0,1-.2.39l-.14.09-.17,0a.41.41,0,0,1-.28-.29.58.58,0,0,1,0-.43,26,26,0,0,1-9.33-6.06l-.63.4a.82.82,0,0,1-.65.12c.28.29.56.58.85.85h.09l.57,0-.18.48.52.47h.14a.42.42,0,0,1,.16-.09.48.48,0,0,1,.42,0,.54.54,0,0,1,.24-.21.45.45,0,0,1,.56.15l0,.08a.4.4,0,0,1-.05.38.42.42,0,0,1-.36.17l-.35.16A27,27,0,0,0,80,63.79Z"/></g><g id="Group_727" data-name="Group 727"><path id="Path_458" data-name="Path 458" class="cls-7" d="M88.29,49.71a3.63,3.63,0,0,1-.65-.09l-.31,0a25.09,25.09,0,0,1-1,3.15h.05a.43.43,0,0,1,.42.22.48.48,0,0,1,0,.54l-.15.24-.27-.09a.43.43,0,0,1-.3-.3c-.12.3-.25.59-.39.88l.22,0H86l0,0,.25.12.52-.08.08-.1.07.08h0v0l.09.08c.17-.4.35-.81.51-1.23a.51.51,0,0,1,0-.49l.11-.15h.08c.14-.4.28-.82.4-1.23l-.14.08.35-.91a.37.37,0,0,1,.07-.12c0-.17.08-.34.13-.51h-.12A.47.47,0,0,1,88.29,49.71Z"/></g><g id="Group_728" data-name="Group 728"><path id="Path_459" data-name="Path 459" class="cls-7" d="M36.44,35.3q-.27.86-.48,1.74l.4-.18,0,.49a.28.28,0,0,1,0,.09l.11.08.32,0,0,.37a.17.17,0,0,1,0,.07,1.07,1.07,0,0,1,.31.25c0-.2.08-.4.13-.6v-.05l.05,0c.42-.1.85-.17,1.27-.23a.43.43,0,0,1-.22-.18.41.41,0,0,1,0-.34c-.27,0-.54.08-.79.14l-.13,0,0-.13a25.65,25.65,0,0,1,.83-2.57.36.36,0,0,1,0-.27h0a6.5,6.5,0,0,1-1.07,1,.31.31,0,0,1-.06.13.36.36,0,0,1-.26.14.25.25,0,0,1-.12,0l-.17.09Z"/></g><g id="Group_729" data-name="Group 729"><path id="Path_460" data-name="Path 460" class="cls-7" d="M39.33,36.67l-.3,0a.69.69,0,0,1,0,.24v.3h.15v0a.46.46,0,0,1,.37-.13.43.43,0,0,1,.24.1h.07V37h0v0l-.34,0,.06-.29a.72.72,0,0,1-.24-.14l0,.06Z"/></g><g id="Group_730" data-name="Group 730"><path id="Path_461" data-name="Path 461" class="cls-7" d="M84.83,56.43a.14.14,0,0,0,.09-.08h-.1v0h0l-.08.07A.14.14,0,0,0,84.83,56.43Z"/></g><g id="Group_732" data-name="Group 732"><path id="Path_463" data-name="Path 463" class="cls-7" d="M87.06,32.39h0l.07.09Z"/></g><g id="Group_733" data-name="Group 733"><path id="Path_464" data-name="Path 464" class="cls-7" d="M89.18,40.14a27.87,27.87,0,0,0-.5-2.9l-.05-.05-.3-.4.22-.09c-.1-.4-.21-.81-.33-1.21l-.17.2-.58-.46.16-.22-.4.06c-.29,0-.5-.12-.63-.47l-.12-.37,0,0a24.85,24.85,0,0,1,1,3.51s0,0,0-.07v-.55l.5.21a.54.54,0,0,1,.34.42l.26-.07-.07.46a.45.45,0,0,1,.1.47l-.06.15,0,0,0,.25a.38.38,0,0,1-.21.32.37.37,0,0,1-.17.05l-.29.19.09.67a26.47,26.47,0,0,1,.16,4.08l.23.18-.26.35c0,.73-.12,1.47-.23,2.22v.07h0v.07a.59.59,0,0,0,0,.13v.26h0c0,.25-.09.5-.13.73l.57-.3-.18.29.51.4-.11.15h0a.55.55,0,0,1,.25.07l.11.07A26.8,26.8,0,0,0,89.18,40.14Z"/></g><g id="Group_734" data-name="Group 734"><path id="Path_465" data-name="Path 465" class="cls-7" d="M87.41,33.36a.66.66,0,0,1-.36.45l-.26.11,0,.17h0l.47-.05.12.22,0,0a.93.93,0,0,1,.15.26l.13.37.24-.3,0,0c-.16-.47-.33-.94-.52-1.4A.29.29,0,0,1,87.41,33.36Z"/></g><g id="Group_735" data-name="Group 735"><path id="Path_466" data-name="Path 466" class="cls-7" d="M55.66,18.21l0,.2a26,26,0,0,1,7.7-.86s0-.05,0-.08a.47.47,0,0,1-.33,0,.62.62,0,0,1-.27-.72l.1-.36.36.11a.58.58,0,0,1,.41.35l.18,0a1.24,1.24,0,0,1,.52.24.45.45,0,0,0,.19.11l.25.05,0,.25a.76.76,0,0,1,0,.15A25.63,25.63,0,0,1,70,18.72a.49.49,0,0,1,0-.2h0l0-.24.79-.09.07.61.2.29,1,.4-.1-.12-.14-.22.16-.2.07-.09a.41.41,0,0,1,.09-.23l-.47.06-.09-.76a26.74,26.74,0,0,0-12.44-1.5l0,0-.06,0a.58.58,0,0,1-.21.1l-.16,0-.14-.08,0,0-.37,0a.75.75,0,0,1,0,.16.78.78,0,0,1-.65.48h-.09l-.06.24-.44-.3a.81.81,0,0,1-.28-.3c-.76.16-1.51.35-2.23.57a.19.19,0,0,1,0,.08v0l.94.8Zm9.54-1.78.59.47-.46.59L64.74,17Z"/></g><g id="Group_736" data-name="Group 736"><path id="Path_467" data-name="Path 467" class="cls-7" d="M54,18.48h0Z"/></g><g id="Group_737" data-name="Group 737"><path id="Path_468" data-name="Path 468" class="cls-7" d="M72.55,18.28v0l0,.18h0l.24,0h0a.76.76,0,0,1,.09-.09Z"/></g><g id="Group_738" data-name="Group 738"><path id="Path_469" data-name="Path 469" class="cls-7" d="M54.32,18.49h0l.44-.08.08.11a.69.69,0,0,1,.19-.1l.23-.08-.76-.19,0,.08.08.15h-.19a.34.34,0,0,1-.14.09Z"/></g><g id="Group_739" data-name="Group 739"><path id="Path_470" data-name="Path 470" class="cls-7" d="M39,31.62h0a1,1,0,0,1,0-.17l0-.32h.35a.32.32,0,0,1,.17,0,26.19,26.19,0,0,1,1.49-2.42l-.08,0c-.16-.06-.4-.25-.25-.71l.09-.3H41a.38.38,0,0,1,0-.21l-.05-.37h.42a.41.41,0,0,1,.43.39.32.32,0,0,1,0,.17l0,.09.11-.16.07-.08.07,0a11.66,11.66,0,0,1,1.19.67h0v-.07a.49.49,0,0,1,0-.44l0-.12-.14-.08a.52.52,0,0,1-.36.19h-.08a.54.54,0,0,1-.44-.23l-.41-.69.66.1c.53-.63,1.1-1.25,1.69-1.84h-.08l-.13-.13a.72.72,0,0,1-.14-.62l.06-.25.49-.06.13.1a.64.64,0,0,1,.2.43c.47-.44,1-.87,1.48-1.29a.31.31,0,0,1,0-.1l0-.4.38,0a.63.63,0,0,1,.27.06A26.06,26.06,0,0,1,53.4,19.1a.41.41,0,0,1,.23-.36l.06,0h0l0,0h-.06a.41.41,0,0,1-.36-.16l-.13-.15h-.1l-.31,0v-.22l-.12-.1-.77.3v0a.42.42,0,0,1-.27.16h-.13A27.24,27.24,0,0,0,41.2,26.37h0a.88.88,0,0,1-.4.54l-.14.07h0l-.08.1c-.36.49-.72,1-1,1.51A.63.63,0,0,1,40,29a.55.55,0,0,1,0,.53l-.09.13-.19,0a.53.53,0,0,1-.53-.27.36.36,0,0,1,0-.09h0c-.41.68-.8,1.39-1.16,2.12l0,0-.18,0a9.28,9.28,0,0,0-3.36,1l.25,0,0,.37a1.29,1.29,0,0,1,0,.19A8.29,8.29,0,0,1,37,32.16v0a.31.31,0,0,1,.08-.24.39.39,0,0,1,.53-.12.45.45,0,0,1-.15.78c-.21.49-.41,1-.6,1.5l.19-.19a4.33,4.33,0,0,1,.88-.72h0l.06,0v0l0-.12a.61.61,0,0,1,.07-.54.69.69,0,0,1,.16-.18h0a.53.53,0,0,1,.23-.44l0-.12.16.06a.62.62,0,0,1,.27,0L39,31.6Z"/></g><g id="Group_740" data-name="Group 740"><path id="Path_471" data-name="Path 471" class="cls-7" d="M43.32,61.16l.36,0L43.5,61A.69.69,0,0,1,43.32,61.16Z"/></g><g id="Group_741" data-name="Group 741"><path id="Path_472" data-name="Path 472" class="cls-7" d="M86.07,32.18h0v0h0l0,0,0,0Z"/></g><g id="Group_742" data-name="Group 742"><path id="Path_473" data-name="Path 473" class="cls-7" d="M38.75,32.8l.07-.16h0a.64.64,0,0,1-.08.14Z"/></g><g id="Group_743" data-name="Group 743"><path id="Path_474" data-name="Path 474" class="cls-7" d="M86.61,33l0-.62a.43.43,0,0,1-.13-.3l-.12-.44h.08a.51.51,0,0,1,0-.45l0-.09c-.15-.3-.32-.62-.5-.94l-.15.09,0,.06h0a.43.43,0,0,1,.1.09.52.52,0,0,1,.14.46.44.44,0,0,1-.1.19.31.31,0,0,1,0,.13l0,.34-.34.07-.1,0a1.22,1.22,0,0,1-.33,0l.33.67,0-.29.74-.09.09.74-.28.1-.12,0a.34.34,0,0,1-.26,0c.11.23.2.45.3.68l.09-.11.25.1.1,0a.67.67,0,0,1,.07-.31A.3.3,0,0,0,86.61,33Z"/></g><g id="Group_744" data-name="Group 744"><path id="Path_475" data-name="Path 475" class="cls-7" d="M70.6,21.56h0Z"/></g><g id="Group_745" data-name="Group 745"><path id="Path_476" data-name="Path 476" class="cls-7" d="M59.54,20.19l.17,0-.44-.12a1.52,1.52,0,0,0-.42-.06.43.43,0,0,0,0,.05l-.07.26Z"/></g><g id="Group_746" data-name="Group 746"><path id="Path_477" data-name="Path 477" class="cls-7" d="M58.46,20.31H58.4l0,.05.3-.05Z"/></g><g id="Group_747" data-name="Group 747"><path id="Path_478" data-name="Path 478" class="cls-7" d="M59.81,20.16h0a.48.48,0,0,1,.13-.29l.1-.11h.15a.44.44,0,0,1,.45.34l.32,0a.69.69,0,0,1,.39-.19l.18,0,.13.13.07-.06h0a.61.61,0,0,1,.41-.23h.18l.12.12a.41.41,0,0,1,.13.23l.71,0a.14.14,0,0,1,0-.06l-.09-.3.29-.14s0,0,.06,0a24.1,24.1,0,0,0-3.8.11Z"/></g><g id="Group_748" data-name="Group 748"><path id="Path_479" data-name="Path 479" class="cls-7" d="M69,21l-.06-.14.36-.14a.31.31,0,0,1,.13,0l-.06-.16a24.31,24.31,0,0,0-5.15-1l0,.15a.64.64,0,0,1-.05.41A23,23,0,0,1,69,21Z"/></g><g id="Group_749" data-name="Group 749"><path id="Path_480" data-name="Path 480" class="cls-7" d="M49.45,23.82v0h0l0,0,0,0h0Z"/></g><g id="Group_750" data-name="Group 750"><path id="Path_481" data-name="Path 481" class="cls-7" d="M47.09,25.22l.15,0-.15.42v0l.4-.34.05-.15a.44.44,0,0,1,.25-.27,1.89,1.89,0,0,1,.16-.51,1.07,1.07,0,0,0,.07-.19q-.54.4-1,.84l.13,0Z"/></g><g id="Group_751" data-name="Group 751"><path id="Path_482" data-name="Path 482" class="cls-7" d="M52.08,22.29l0,0a.41.41,0,0,1,0-.4l0-.05-.64.32v0a.64.64,0,0,1-.28.66h0l0,.09c.36-.2.71-.38,1.07-.56Z"/></g><g id="Group_752" data-name="Group 752"><path id="Path_483" data-name="Path 483" class="cls-7" d="M49,24.18A.34.34,0,0,1,49,24a.71.71,0,0,1-.13.26v0h0Z"/></g><g id="Group_753" data-name="Group 753"><path id="Path_484" data-name="Path 484" class="cls-7" d="M50.26,22.74c-.46.27-.91.55-1.35.85a.44.44,0,0,1,.05.15l0-.16.74-.09,0,.21c.34-.22.69-.43,1-.63l-.13,0A.52.52,0,0,1,50.26,22.74Z"/></g><g id="Group_754" data-name="Group 754"><path id="Path_485" data-name="Path 485" class="cls-7" d="M55,21v.17h0l.68-.21,0-.32a.39.39,0,0,1-.16.1.37.37,0,0,1-.3.28A.36.36,0,0,1,55,21Z"/></g><g id="Group_755" data-name="Group 755"><path id="Path_486" data-name="Path 486" class="cls-7" d="M70.88,21.11l0,0v0h0A0,0,0,0,0,70.88,21.11Z"/></g><g id="Group_756" data-name="Group 756"><path id="Path_487" data-name="Path 487" class="cls-7" d="M82.2,30.58l-.08-.13a.31.31,0,0,1-.06.13.38.38,0,0,1-.18.13c.16.25.31.5.46.76l.32-.41.16.13c-.15-.25-.3-.5-.46-.75Z"/></g><g id="Group_757" data-name="Group 757"><path id="Path_488" data-name="Path 488" class="cls-7" d="M81.56,29.9a.4.4,0,0,1,.32,0v-.16c-.27-.39-.55-.77-.85-1.15l0,.34a.44.44,0,0,1-.15.39l.48.67Z"/></g><g id="Group_758" data-name="Group 758"><path id="Path_489" data-name="Path 489" class="cls-7" d="M76.15,23.93a1.08,1.08,0,0,1-.55-.1.76.76,0,0,1-.4-.55,24.23,24.23,0,0,0-3.13-1.7h0l-.38.05v0l.17.36-.09,0a23.58,23.58,0,0,1,8.56,6.54l.16,0h0a.38.38,0,0,1,.15,0L81,28.5A23.69,23.69,0,0,0,76.15,23.93Z"/></g><g id="Group_759" data-name="Group 759"><path id="Path_490" data-name="Path 490" class="cls-7" d="M39.29,38.52v0h0Z"/></g><g id="Group_760" data-name="Group 760"><path id="Path_491" data-name="Path 491" class="cls-7" d="M48.16,62h0l-.09.07a.17.17,0,0,0,.12,0,.2.2,0,0,0,.09-.09h-.1Z"/></g><g id="Group_762" data-name="Group 762"><path id="Path_493" data-name="Path 493" class="cls-7" d="M80.3,58.92a.49.49,0,0,1-.41-.22l0-.06A23.07,23.07,0,0,1,77.7,60.8l0,.07a.44.44,0,0,1,0,.32l0,.3a24.08,24.08,0,0,0,2.58-2.57Z"/></g><g id="Group_763" data-name="Group 763"><path id="Path_494" data-name="Path 494" class="cls-7" d="M77.75,61.5h-.41a.41.41,0,0,1-.29-.13c-.25.21-.51.42-.78.61a.5.5,0,0,1,0,.27.53.53,0,0,1-.33.34l-.24.2-.22-.24c-.28.2-.57.38-.86.57l0,0a.53.53,0,0,1-.22.12l-.34.2h0l.28,0,.05.4.07,0v-.06l0-.32.32-.06a.42.42,0,0,1,.27,0l.15-.23.1.13A23.7,23.7,0,0,0,77.75,61.5Z"/></g><g id="Group_764" data-name="Group 764"><path id="Path_495" data-name="Path 495" class="cls-7" d="M73.48,64.16a.41.41,0,0,1-.18,0l.07.23-.48-.13-.06.08-.22,0h0l-.17.51-.22-.33a3.39,3.39,0,0,1-.39.18.19.19,0,0,0,0,.08.92.92,0,0,0,0,.16l.09.32c.6-.26,1.2-.56,1.77-.87l-.06,0Z"/></g><g id="Group_765" data-name="Group 765"><path id="Path_496" data-name="Path 496" class="cls-7" d="M77.47,61a.12.12,0,0,1,0,.1l0,.1.07-.05a.14.14,0,0,0,0-.14l0,0Z"/></g><g id="Group_766" data-name="Group 766"><path id="Path_497" data-name="Path 497" class="cls-7" d="M44.36,59.05h0Z"/></g><g id="Group_768" data-name="Group 768"><path id="Path_499" data-name="Path 499" class="cls-7" d="M80.33,58.07h0a.85.85,0,0,1,.23,0l.36.08a23.57,23.57,0,0,0,4.4-8.72l-.07,0a2.05,2.05,0,0,1-.55.16A23.64,23.64,0,0,1,80.33,58.07Z"/></g><g id="Group_769" data-name="Group 769"><path id="Path_500" data-name="Path 500" class="cls-7" d="M44.52,27.66Z"/></g><g id="Group_770" data-name="Group 770"><path id="Path_501" data-name="Path 501" class="cls-7" d="M40.42,33.9a.34.34,0,0,1,0,.1h.07a.38.38,0,0,1,.25.09.54.54,0,0,1,.07-.39.5.5,0,0,1,.54-.52l0-.08h-.21a.45.45,0,0,1-.36,0l0,0c-.12.25-.24.5-.35.77Z"/></g><g id="Group_771" data-name="Group 771"><path id="Path_502" data-name="Path 502" class="cls-7" d="M41.6,32.63h-.05v.1Z"/></g><g id="Group_772" data-name="Group 772"><path id="Path_503" data-name="Path 503" class="cls-7" d="M81.58,30.27l0,0,0,0v-.05s0,0,0,0A.08.08,0,0,1,81.58,30.27Z"/></g><g id="Group_773" data-name="Group 773"><path id="Path_504" data-name="Path 504" class="cls-7" d="M84.37,35.35l-.16.06c.09.24.17.49.25.74l.5-.23c-.08-.26-.17-.52-.27-.79A.87.87,0,0,1,84.37,35.35Z"/></g><g id="Group_774" data-name="Group 774"><path id="Path_505" data-name="Path 505" class="cls-7" d="M38.79,39.81h0a.24.24,0,0,1-.08.06c0,.18,0,.35-.07.52l.3,0-.09.34H39l.11-.08c0-.33.08-.67.13-1l-.09,0h-.07A.42.42,0,0,1,38.79,39.81Z"/></g><g id="Group_775" data-name="Group 775"><path id="Path_506" data-name="Path 506" class="cls-7" d="M40.06,35l0,0v0a.25.25,0,0,1,0-.19v0l-.06.05A.17.17,0,0,0,40.06,35Z"/></g><g id="Group_776" data-name="Group 776"><path id="Path_507" data-name="Path 507" class="cls-7" d="M40.13,36.13c0-.15.1-.3.16-.45l-.1-.06-.14-.1v-.18l-.16,0,0-.09c-.07.19-.14.38-.2.57a.62.62,0,0,1,.45.29A.05.05,0,0,1,40.13,36.13Z"/></g><g id="Group_778" data-name="Group 778"><path id="Path_509" data-name="Path 509" class="cls-7" d="M39.35,38.19a.38.38,0,0,1-.13.06v0l.15,0a.53.53,0,0,1,.17,0c0-.11.05-.22.07-.34H39.5A.41.41,0,0,1,39.35,38.19Z"/></g><g id="Group_779" data-name="Group 779"><path id="Path_510" data-name="Path 510" class="cls-7" d="M39,38.52a.41.41,0,0,1,.05-.09H39Z"/></g><g id="Group_780" data-name="Group 780"><path id="Path_511" data-name="Path 511" class="cls-7" d="M39,38.79a.34.34,0,0,1-.14.19l0,.16L39,39l0,0H39Z"/></g><g id="Group_781" data-name="Group 781"><path id="Path_512" data-name="Path 512" class="cls-7" d="M57.05,20.54l-.08,0h.08v.07l.88-.19-.06,0h-.17a1,1,0,0,1-.76-.3l-.16,0A.47.47,0,0,1,57.05,20.54Z"/></g><g id="Group_782" data-name="Group 782"><path id="Path_513" data-name="Path 513" class="cls-7" d="M82.66,32h0Z"/></g><g id="Group_783" data-name="Group 783"><path id="Path_514" data-name="Path 514" class="cls-7" d="M56.79,20.47h0l0,0Z"/></g><g id="Group_784" data-name="Group 784"><path id="Path_515" data-name="Path 515" class="cls-7" d="M84.94,36.44l0,0,0,0,.18.18-.07.17.07.26H85l0,.27a.42.42,0,0,1,.19.53.34.34,0,0,1-.1.16,23.78,23.78,0,0,1,.44,2.5c0,.17,0,.35.06.55l.28.1h0l.13,0,.15,0c0-.26,0-.52-.07-.77a24.15,24.15,0,0,0-.93-4.31Z"/></g><g id="Group_785" data-name="Group 785"><path id="Path_516" data-name="Path 516" class="cls-7" d="M86,45.62a23.52,23.52,0,0,0,.08-3.46l-.24,0a.57.57,0,0,1-.18,0h-.1l0,0a23.23,23.23,0,0,1-.09,3.54L86,45.6Z"/></g><g id="Group_786" data-name="Group 786"><path id="Path_517" data-name="Path 517" class="cls-7" d="M85.32,47l.06.15a.45.45,0,0,1-.11.49l-.07,0c0,.22-.09.46-.15.71l.15-.05a.64.64,0,0,1,.43,0q.11-.48.18-1h-.35l0-.34a.43.43,0,0,1,.13-.37.42.42,0,0,1,.36-.1h0V46.4l-.56.07C85.37,46.63,85.34,46.79,85.32,47Z"/></g><g id="Group_787" data-name="Group 787"><path id="Path_518" data-name="Path 518" class="cls-7" d="M40.33,34.49l0,0,.08,0h0v0h0v0a.13.13,0,0,1,0-.12h-.06A.12.12,0,0,0,40.33,34.49Z"/></g><g id="Group_788" data-name="Group 788"><path id="Path_519" data-name="Path 519" class="cls-7" d="M40.45,34.26h0v0h0Z"/></g><g id="Group_789" data-name="Group 789"><path id="Path_520" data-name="Path 520" class="cls-7" d="M83.86,34.49h0l.1,0,.14-.08,0,0L83.63,34C83.71,34.15,83.79,34.32,83.86,34.49Z"/></g><g id="Group_790" data-name="Group 790"><path id="Path_521" data-name="Path 521" class="cls-7" d="M83.8,33c-.07-.16-.15-.31-.23-.46l0,.1-.39-.13L83,32.45l-.07,0h0c.15.28.29.58.43.87Z"/></g><g id="Group_791" data-name="Group 791"><path id="Path_522" data-name="Path 522" class="cls-7" d="M83.47,33.61l0,.1.59,0c-.08-.18-.16-.37-.25-.56Z"/></g><g id="Group_792" data-name="Group 792"><path id="Path_523" data-name="Path 523" class="cls-7" d="M65.38,56.25l0,0-.12,0a.23.23,0,0,0,.06.16.16.16,0,0,0,.17,0l-.06-.07h0a.09.09,0,0,1,0-.06h0l0,0Z"/></g><g id="Group_793" data-name="Group 793"><path id="Path_524" data-name="Path 524" class="cls-7" d="M65.54,56.21l0,0,.08,0a.21.21,0,0,0-.05-.12l-.08,0Z"/></g><g id="Group_794" data-name="Group 794"><path id="Path_525" data-name="Path 525" class="cls-7" d="M57.35,30.5v-.07l-.53.22a.45.45,0,0,1,.15.21.62.62,0,0,1,0,.3h0l.18-.07a.29.29,0,0,1,.12-.1l.06-.06.09-.08h0l-.19-.1Z"/></g><g id="Group_795" data-name="Group 795"><path id="Path_526" data-name="Path 526" class="cls-7" d="M52.34,36.54a.36.36,0,0,0,.12.18l0-.1v-.06A.3.3,0,0,1,52.34,36.54Z"/></g><g id="Group_796" data-name="Group 796"><path id="Path_527" data-name="Path 527" class="cls-7" d="M52.48,34.14a.56.56,0,0,1-.33.08H52l-.13,0a13.6,13.6,0,0,0-1.25,1.66l0,0h-.05l-.57,0v.06h.63l0,.38a.56.56,0,0,1-.23.43.81.81,0,0,1-.29.12L50,37v0a.42.42,0,0,1-.14.27h0l.13.09a.45.45,0,0,1,.3-.07l.17,0c.13-.27.28-.54.43-.79l0,0H51a11.66,11.66,0,0,0,1.18-.06A.44.44,0,0,1,52,36l0-.13-.6,0h-.17l.1-.14A13.9,13.9,0,0,1,52.86,34v-.14h0A.67.67,0,0,1,52.48,34.14Z"/></g><g id="Group_797" data-name="Group 797"><path id="Path_528" data-name="Path 528" class="cls-7" d="M46.72,35.32a9.19,9.19,0,0,0,1.46.68.47.47,0,0,1-.18-.29.44.44,0,0,1,.06-.35c-.3-.12-.59-.26-.88-.41h-.07l-.25.1a2.86,2.86,0,0,1-.41.15l-.25.06.13.26-.32-.1-.06.13,0,0,.16.07.26.08.23-.46Z"/></g><g id="Group_798" data-name="Group 798"><path id="Path_529" data-name="Path 529" class="cls-7" d="M49.53,36.23a.31.31,0,0,1-.13,0,.42.42,0,0,1-.27-.32l-.05-.18h0l-.24-.06a.57.57,0,0,1,0,.18l-.06.22-.25.05h-.07a7.8,7.8,0,0,0,1.06.26A.56.56,0,0,1,49.53,36.23Z"/></g><g id="Group_799" data-name="Group 799"><path id="Path_530" data-name="Path 530" class="cls-7" d="M63.36,29.88h0Z"/></g><g id="Group_801" data-name="Group 801"><path id="Path_532" data-name="Path 532" class="cls-7" d="M63.5,29.91h0a.12.12,0,0,1,0,.1v0l-.09,0,0,0a.14.14,0,0,0,.16-.11.13.13,0,0,0,0-.06Z"/></g><g id="Group_803" data-name="Group 803"><path id="Path_534" data-name="Path 534" class="cls-7" d="M59,56.18v.26c0,.09,0,.19,0,.27v0a11.16,11.16,0,0,0,1.4.27v0l.35,0,.1,0a12.75,12.75,0,0,0,2.62,0,.25.25,0,0,1,0-.07l.07-.2.21,0a.43.43,0,0,1,.16,0l.15,0v-.24l.78-.1.06.48,1-.23.06-.35.12.1v-.09l.26-.12a.61.61,0,0,1,.33,0l0,0,.27.08a.31.31,0,0,1,.13.06,13.44,13.44,0,0,0,1.69-.76l-.2-.14-.09-.09-.08,0-.09-.05,0-.06a13.73,13.73,0,0,1-2.47,1,.38.38,0,0,1-.06.41.4.4,0,0,1-.27.16.36.36,0,0,1-.25-.06.39.39,0,0,1-.17-.33,10.17,10.17,0,0,1-1.21.2A13.21,13.21,0,0,1,59,56.18Z"/></g><g id="Group_804" data-name="Group 804"><path id="Path_535" data-name="Path 535" class="cls-7" d="M73.44,51.48a.46.46,0,0,1-.07-.16l-.12-.44.45,0h.17a13.8,13.8,0,0,0,2.23-6.93.88.88,0,0,1-.36.1h-.2a13.23,13.23,0,0,1-6.33,10.61.51.51,0,0,1,.14.26l0,.06V55a.43.43,0,0,1-.1.24A13.77,13.77,0,0,0,73.44,51.48Z"/></g><g id="Group_805" data-name="Group 805"><path id="Path_536" data-name="Path 536" class="cls-7" d="M69,55.43h0l-.09.06Z"/></g><g id="Group_806" data-name="Group 806"><path id="Path_537" data-name="Path 537" class="cls-7" d="M49.07,42.21h0Z"/></g><g id="Group_807" data-name="Group 807"><path id="Path_538" data-name="Path 538" class="cls-7" d="M49,44a14.24,14.24,0,0,1,0-1.46.46.46,0,0,1-.09.17l-.19.23-.28-.13h0c0,.39,0,.79,0,1.18h.05l.29,0Z"/></g><g id="Group_808" data-name="Group 808"><path id="Path_539" data-name="Path 539" class="cls-7" d="M76,43h0l.11,0v-.09l-.23.05,0-.08-.13.07,0,.1c0,.05,0,.11-.07.17h.08l.16,0Z"/></g><g id="Group_809" data-name="Group 809"><path id="Path_540" data-name="Path 540" class="cls-7" d="M70,31.89h0a15.17,15.17,0,0,0-1.88-1.07.53.53,0,0,1-.12,0h-.19l-.27,0-.1-.25,0-.12a12.3,12.3,0,0,0-1.16-.41.39.39,0,0,1,.18.22.37.37,0,0,1,0,.23l.21-.09.18.26a.64.64,0,0,1,.08.19,12,12,0,0,1,1.42.63h.19l0,.12.41.24.18-.09a.45.45,0,0,1,.2,0v0l.52.11Z"/></g><g id="Group_810" data-name="Group 810"><path id="Path_541" data-name="Path 541" class="cls-7" d="M63,30.09l0-.08a.44.44,0,0,1,.24-.46h0a17.61,17.61,0,0,0-1.78,0l0,0-.06.3a.58.58,0,0,1-.09.25A13.27,13.27,0,0,1,63,30.09Z"/></g><g id="Group_811" data-name="Group 811"><path id="Path_542" data-name="Path 542" class="cls-7" d="M71,33.15a.66.66,0,0,1,.08-.41l-.06-.08c-.22-.19-.46-.37-.7-.54l0,.16.06.07.24.36-.23.11c.2.15.4.32.6.49A1.66,1.66,0,0,1,71,33.15Z"/></g><g id="Group_812" data-name="Group 812"><path id="Path_543" data-name="Path 543" class="cls-7" d="M66,30q-.42-.12-.87-.21a.75.75,0,0,1-.3.09H64.4l0-.25-.74-.09.06.06.1.1v.14a.38.38,0,0,1,0,.18h0L64.4,30l-.14.21.75.13.08-.05A2.22,2.22,0,0,1,66,30Z"/></g><g id="Group_813" data-name="Group 813"><path id="Path_544" data-name="Path 544" class="cls-7" d="M60,30.15a.33.33,0,0,1,0,.13l.4-.07-.06-.55-.49.08A.44.44,0,0,1,60,30.15Z"/></g><g id="Group_814" data-name="Group 814"><path id="Path_545" data-name="Path 545" class="cls-7" d="M76,42l0-.26a13.56,13.56,0,0,0-2-5.65l-.39,0,.18-.36a14,14,0,0,0-1-1.37,3.27,3.27,0,0,1-.62.14A13.26,13.26,0,0,1,75,39.62l.09.08a.54.54,0,0,1,.08.58,12.58,12.58,0,0,1,.27,1.49c0,.13,0,.26,0,.4l.13,0,.08,0a.52.52,0,0,1,.12-.17A.78.78,0,0,1,76,42Z"/></g><g id="Group_815" data-name="Group 815"><path id="Path_546" data-name="Path 546" class="cls-7" d="M57.88,56.24l-.24-.49-.1,0v0a.28.28,0,0,0,0,.09v.46l.47.16Z"/></g><g id="Group_816" data-name="Group 816"><path id="Path_547" data-name="Path 547" class="cls-7" d="M54.85,54.62a.4.4,0,0,1-.34-.2l-.27.1,0,0a14,14,0,0,0,2.24,1.32.13.13,0,0,0,0-.06l0-.2.15-.14a.42.42,0,0,1,.14-.09,13.84,13.84,0,0,1-1.55-.86l-.07.13Z"/></g><g id="Group_817" data-name="Group 817"><path id="Path_548" data-name="Path 548" class="cls-7" d="M54.68,54.26a.19.19,0,0,0,.12.11l0-.07Z"/></g><g id="Group_818" data-name="Group 818"><path id="Path_549" data-name="Path 549" class="cls-7" d="M49.69,38.81a.47.47,0,0,1-.1-.43l.06-.24.13,0v-.06l-.26,0c-.11.26-.21.53-.3.79l.49.27.08-.23Z"/></g><g id="Group_819" data-name="Group 819"><path id="Path_550" data-name="Path 550" class="cls-7" d="M49,39.71h.29l0-.2.29.06L49.19,39C49.11,39.2,49,39.45,49,39.71Z"/></g><g id="Group_820" data-name="Group 820"><path id="Path_551" data-name="Path 551" class="cls-7" d="M49,41.93h0l0,0Z"/></g><g id="Group_821" data-name="Group 821"><path id="Path_552" data-name="Path 552" class="cls-7" d="M56.28,31.51v-.08L56.12,31h.07l0-.05-.6.31a.51.51,0,0,1,0,.48l-.08.13V32l-.31.09h-.09a.4.4,0,0,1-.33-.1.35.35,0,0,1-.1-.11,4.56,4.56,0,0,0-.39.27.75.75,0,0,1,.2.37h0l.15,0h.09A13,13,0,0,1,56.28,31.51Z"/></g><g id="Group_822" data-name="Group 822"><path id="Path_553" data-name="Path 553" class="cls-7" d="M73.48,47.08a.4.4,0,0,0,.19,0,.49.49,0,1,0-.12-1,.49.49,0,0,0-.43.55A.52.52,0,0,0,73.48,47.08Z"/></g><g id="Group_823" data-name="Group 823"><path id="Path_554" data-name="Path 554" class="cls-7" d="M72.73,48.55a.43.43,0,0,1,.23.14.46.46,0,0,1,.09.32s0,0,0,0a.5.5,0,0,0,.23-.59.49.49,0,0,0-.62-.31.48.48,0,0,0-.29.25h0l0,.07h.16A.42.42,0,0,1,72.73,48.55Z"/></g><g id="Group_824" data-name="Group 824"><path id="Path_555" data-name="Path 555" class="cls-7" d="M74.52,42.27a.47.47,0,0,0,0-.16l0,0v0a.17.17,0,0,0,0-.07.41.41,0,0,1-.07.15l-.07.1-.11,0-.1,0a.39.39,0,0,1-.26,0l-.06,0a.4.4,0,0,1-.22-.22l-.08.09,0,.08,0,0v0a.38.38,0,0,0,0,.15.28.28,0,0,0,0,.13.78.78,0,0,1,.21,0h.06a.47.47,0,0,1,.37.32A.49.49,0,0,0,74.52,42.27Z"/></g><g id="Group_825" data-name="Group 825"><path id="Path_556" data-name="Path 556" class="cls-7" d="M73.55,41.83v-.07a.41.41,0,0,0,0,.24h0l.06-.15A0,0,0,0,1,73.55,41.83Z"/></g><g id="Group_826" data-name="Group 826"><path id="Path_557" data-name="Path 557" class="cls-7" d="M74.51,44.53a.53.53,0,0,0-.1-.35,2.07,2.07,0,0,1-.5,0l-.2,0-.08.08h0a.41.41,0,0,1,.41.4v0a.32.32,0,0,1,0,.14h.4A.58.58,0,0,0,74.51,44.53Z"/></g><g id="Group_827" data-name="Group 827"><path id="Path_558" data-name="Path 558" class="cls-7" d="M73.8,44.47a.19.19,0,0,0-.13,0h0l0,0Z"/></g><g id="Group_828" data-name="Group 828"><path id="Path_559" data-name="Path 559" class="cls-7" d="M73.35,40a.5.5,0,0,1,.43-.43l.15,0a.46.46,0,0,0-.39-.2l-.14,0h0a.5.5,0,0,0-.33.62.52.52,0,0,0,.38.34A.42.42,0,0,1,73.35,40Z"/></g><g id="Group_829" data-name="Group 829"><path id="Path_560" data-name="Path 560" class="cls-7" d="M66.14,54.05a.51.51,0,0,0,0,.45.49.49,0,0,0,.51.31l.12,0a.48.48,0,0,0,.29-.63.51.51,0,0,0-.4-.32l0,.12-.32.09h-.07A.2.2,0,0,1,66.14,54.05Z"/></g><g id="Group_830" data-name="Group 830"><path id="Path_561" data-name="Path 561" class="cls-7" d="M52,46.79a.57.57,0,0,1-.25.08l-.2.1.34,0,0-.1.18,0,.14,0v-.07l.36,0,.1-.15-.41.12h0l-.2.06Z"/></g><g id="Group_831" data-name="Group 831"><path id="Path_562" data-name="Path 562" class="cls-7" d="M52.84,46.5l.14.06v-.05l.22-.06a.37.37,0,0,1,.23,0l.28,0,0,.35s0,.07,0,.11a.28.28,0,0,0,.06-.39.27.27,0,0,0-.26-.11l-.55,0Z"/></g><g id="Group_832" data-name="Group 832"><path id="Path_563" data-name="Path 563" class="cls-7" d="M51,46.17l0,.07.06.3a.43.43,0,0,1,0,.16l.08.36-.36,0a.48.48,0,0,0,.33.07h.07a.51.51,0,0,0,.23-.15l0,0h.12l-.18-.19a.47.47,0,0,1-.09-.54A.58.58,0,0,0,51,46.17Z"/></g><g id="Group_833" data-name="Group 833"><path id="Path_564" data-name="Path 564" class="cls-7" d="M58.13,32,58,32a.39.39,0,0,1,.1.16Z"/></g><g id="Group_834" data-name="Group 834"><path id="Path_565" data-name="Path 565" class="cls-7" d="M57.48,32.74a.51.51,0,0,0,.43.17l.13,0a.51.51,0,0,0,.31-.47l0,0-.18-.12v.25l-.22.1a.42.42,0,0,1-.15,0A.69.69,0,0,1,57.48,32.74Z"/></g><g id="Group_835" data-name="Group 835"><path id="Path_566" data-name="Path 566" class="cls-7" d="M69.85,52.38a.5.5,0,0,0,.43.16l.14,0a.45.45,0,0,1,.23-.22.48.48,0,0,0-.07-.56.44.44,0,0,0-.34-.16h0a.49.49,0,0,0-.49.49.5.5,0,0,0,.12.33Z"/></g><g id="Group_836" data-name="Group 836"><path id="Path_567" data-name="Path 567" class="cls-7" d="M50.79,44.89l0,.08a.47.47,0,0,0,.25-.37.41.41,0,0,1-.39-.3.57.57,0,0,1-.37.27v.22a.68.68,0,0,1,0,.14l0,0Z"/></g><g id="Group_837" data-name="Group 837"><path id="Path_568" data-name="Path 568" class="cls-7" d="M72.16,50.53a.49.49,0,0,0-.18-.47h0c0,.13.06.27.08.41A.47.47,0,0,1,72.16,50.53Z"/></g><g id="Group_838" data-name="Group 838"><path id="Path_569" data-name="Path 569" class="cls-7" d="M68.91,53.09a.5.5,0,0,0-.42-.23.49.49,0,0,0-.49.49.53.53,0,0,0,.07.26.51.51,0,0,0,.48.24.5.5,0,0,0,.2-.08l0,0,.11-.13A.49.49,0,0,0,68.91,53.09Z"/></g><g id="Group_839" data-name="Group 839"><path id="Path_570" data-name="Path 570" class="cls-7" d="M50.33,42.28l.3-.07v0a.52.52,0,0,1,.37-.05.48.48,0,0,0-.42-.3.49.49,0,0,0-.53.45h0v0a.45.45,0,0,1,.25-.07l0,.08h0Z"/></g><g id="Group_840" data-name="Group 840"><path id="Path_571" data-name="Path 571" class="cls-7" d="M53,35.92a.53.53,0,0,0-.17,0l0,0a.94.94,0,0,1,0,.16l.1,0h0A.32.32,0,0,1,53,35.92Z"/></g><g id="Group_841" data-name="Group 841"><path id="Path_572" data-name="Path 572" class="cls-7" d="M55.89,33.52a.76.76,0,0,1,.06.37v0h0a.49.49,0,0,0,.21-.08.49.49,0,0,0,.18-.62l0,0-.07,0A1.46,1.46,0,0,1,55.89,33.52Z"/></g><g id="Group_842" data-name="Group 842"><path id="Path_573" data-name="Path 573" class="cls-7" d="M51.31,38v0Z"/></g><g id="Group_843" data-name="Group 843"><path id="Path_574" data-name="Path 574" class="cls-7" d="M51.47,38.31a.14.14,0,0,0,.09-.08h-.11l-.1.09A.16.16,0,0,0,51.47,38.31Z"/></g><g id="Group_844" data-name="Group 844"><path id="Path_575" data-name="Path 575" class="cls-7" d="M51.9,37.77a.55.55,0,0,0-.4,0,.39.39,0,0,1,.19.12l.18.18-.11.25a.39.39,0,0,1-.42.21h-.05a.49.49,0,0,0,.18.14h0a.41.41,0,0,0,.27.05.49.49,0,0,0,.43-.55.48.48,0,0,0-.28-.38Z"/></g><g id="Group_845" data-name="Group 845"><path id="Path_576" data-name="Path 576" class="cls-7" d="M50.78,40.72h0a.61.61,0,0,0,.19,0,.49.49,0,0,0,.42-.35l-.36,0H51A.42.42,0,0,1,50.78,40.72Z"/></g><g id="Group_846" data-name="Group 846"><path id="Path_577" data-name="Path 577" class="cls-7" d="M55.85,53.52l-.14.09a.41.41,0,0,0,.18.19l0,0a.44.44,0,0,0,.28,0,.49.49,0,0,0,.36-.74l-.15.18a.63.63,0,0,1-.47.2Z"/></g><g id="Group_847" data-name="Group 847"><path id="Path_578" data-name="Path 578" class="cls-7" d="M59.55,31.71a.19.19,0,0,0-.1,0,0,0,0,0,1,0,0l.16.06A.15.15,0,0,0,59.55,31.71Z"/></g><g id="Group_848" data-name="Group 848"><path id="Path_579" data-name="Path 579" class="cls-7" d="M59.76,31.62l0-.28a.36.36,0,0,0-.12.08l.1.13A.18.18,0,0,1,59.76,31.62Z"/></g><g id="Group_849" data-name="Group 849"><path id="Path_580" data-name="Path 580" class="cls-7" d="M60,32.28a.49.49,0,0,0,.3-.2h-.2l-.31,0V32a.26.26,0,0,1-.07.11.3.3,0,0,1-.08.08.42.42,0,0,0,.33.08Z"/></g><g id="Group_850" data-name="Group 850"><path id="Path_581" data-name="Path 581" class="cls-7" d="M53,50.07h0a.38.38,0,0,1,.09.53.39.39,0,0,1-.5.1l0,.13a.49.49,0,0,0,.75-.63.49.49,0,0,0-.45-.19Z"/></g><g id="Group_851" data-name="Group 851"><path id="Path_582" data-name="Path 582" class="cls-7" d="M52,49.12h0a.49.49,0,1,0-.71-.37h.12A.57.57,0,0,1,52,49.12Z"/></g><g id="Group_852" data-name="Group 852"><path id="Path_583" data-name="Path 583" class="cls-7" d="M68.71,33.44a.54.54,0,0,0,.06-.33h0a.44.44,0,0,1-.09.31l-.06.06v.07Z"/></g><g id="Group_853" data-name="Group 853"><path id="Path_584" data-name="Path 584" class="cls-7" d="M66.62,32.14h.18a.11.11,0,0,0,0-.07h-.13Z"/></g><g id="Group_854" data-name="Group 854"><path id="Path_585" data-name="Path 585" class="cls-7" d="M65.94,32.1l0,0h0l0,0h.08Z"/></g><g id="Group_855" data-name="Group 855"><path id="Path_586" data-name="Path 586" class="cls-7" d="M64.72,31.64h0a.5.5,0,0,0-.4-.41h-.09a.49.49,0,0,0-.09,1l.12-.29A.44.44,0,0,1,64.72,31.64Z"/></g><g id="Group_856" data-name="Group 856"><path id="Path_587" data-name="Path 587" class="cls-7" d="M69.54,34.49a.5.5,0,0,0,.53.46h0a.48.48,0,0,0,.43-.55.47.47,0,0,0-.16-.31.5.5,0,0,0-.7.05A.52.52,0,0,0,69.54,34.49Z"/></g><g id="Group_857" data-name="Group 857"><path id="Path_588" data-name="Path 588" class="cls-7" d="M54.5,51.7a.14.14,0,0,0-.08.09.1.1,0,0,0,0,.1Z"/></g><g id="Group_858" data-name="Group 858"><path id="Path_589" data-name="Path 589" class="cls-7" d="M71.28,35.78s0,0,0,.06a.65.65,0,0,1,0,.31,2,2,0,0,1,.17.36h.11a.49.49,0,0,0-.11-1l-.08,0a.45.45,0,0,1-.1.14Z"/></g><g id="Group_859" data-name="Group 859"><path id="Path_590" data-name="Path 590" class="cls-7" d="M62.82,55.11a.5.5,0,0,0-.5-.49h-.09a.64.64,0,0,1,0,.07v0s0,0,0,.07l-.11.74a.43.43,0,0,0,.25.07h.05A.5.5,0,0,0,62.82,55.11Z"/></g><g id="Group_860" data-name="Group 860"><path id="Path_591" data-name="Path 591" class="cls-7" d="M64,55a.49.49,0,0,0,.54.4h0a.48.48,0,0,0,.39-.57.46.46,0,0,0-.19-.3l.18.26-.67,0-.08,0-.16,0,0,.15L64,55Z"/></g><g id="Group_861" data-name="Group 861"><path id="Path_592" data-name="Path 592" class="cls-7" d="M60.26,54.44a.49.49,0,1,0-.18,1,.38.38,0,0,0,.15,0,.49.49,0,0,0,.43-.54.5.5,0,0,0-.4-.44Z"/></g><g id="Group_862" data-name="Group 862"><path id="Path_593" data-name="Path 593" class="cls-7" d="M73.15,37.6a.54.54,0,0,0-.14-.16h0l-.19.06-.16-.14,0,0a.5.5,0,0,0-.41.57.88.88,0,0,0,0,.15.51.51,0,0,0,.5.26l.13,0,0-.14.25,0A.51.51,0,0,0,73.15,37.6Z"/></g><g id="Group_863" data-name="Group 863"><path id="Path_594" data-name="Path 594" class="cls-7" d="M57.87,54.78l0,0a.45.45,0,0,0,.23,0,.5.5,0,0,0,.44-.55.49.49,0,0,0-.55-.43.49.49,0,0,0-.16.93Z"/></g><g id="Group_864" data-name="Group 864"><path id="Path_595" data-name="Path 595" class="cls-7" d="M57.7,40.44l.07.05.41-.05a.08.08,0,0,1,0,0h-.32a.45.45,0,0,1-.16,0l-.06.06Z"/></g><g id="Group_865" data-name="Group 865"><path id="Path_596" data-name="Path 596" class="cls-7" d="M57.52,39.69v0h-.08Z"/></g><g id="Group_866" data-name="Group 866"><path id="Path_597" data-name="Path 597" class="cls-7" d="M55.4,40.22c.18,0,.35,0,.51,0l.56,0v-.08l.22,0a.44.44,0,0,1,.07-.35.49.49,0,0,1,.22-.18l-1.27.15A.36.36,0,0,0,55.4,40.22Z"/></g><g id="Group_867" data-name="Group 867"><path id="Path_598" data-name="Path 598" class="cls-7" d="M62.49,39.54l.26.14a.56.56,0,0,1-.1-.29l0-.33-2.4.28a.67.67,0,0,1,0,.2v.18l-.14.1a.59.59,0,0,1-.48.09.48.48,0,0,1-.21.07h-.21l0,0a.93.93,0,0,1,.39.26L62.19,40l.1-.16Z"/></g><g id="Group_868" data-name="Group 868"><path id="Path_599" data-name="Path 599" class="cls-7" d="M63.22,39.83l-.08,0a.39.39,0,0,1-.21,0,.1.1,0,0,1,0,0l1.29-.15a.45.45,0,0,1-.16-.2h0l-.1-.43.06,0a.47.47,0,0,1,.06-.19l-.29,0v0l-.11,0h0a.67.67,0,0,1-.22.65l0,.06-.07.11Z"/></g><g id="Group_869" data-name="Group 869"><path id="Path_600" data-name="Path 600" class="cls-7" d="M68.89,43.83l-.6-5.07a.38.38,0,0,0-.41-.33h0L66,38.66l0,0h0l0,.06,0,0a.37.37,0,0,1-.5.08.26.26,0,0,1-.09-.09l-.53.06a.67.67,0,0,1,.2.39l.07.35-.28.07,0,0,1.76-.21-2.16,2.05a1.81,1.81,0,0,1,.41.37l3-2.83.59,5,.18,0,0,0A.77.77,0,0,1,68.89,43.83Z"/></g><g id="Group_870" data-name="Group 870"><path id="Path_601" data-name="Path 601" class="cls-7" d="M57.65,41.28h0l0,0h0v0l0,0h0Z"/></g><g id="Group_871" data-name="Group 871"><path id="Path_602" data-name="Path 602" class="cls-7" d="M56.05,41.82v-.14l-.1,0a.54.54,0,0,1-.28,0h-.09l0,.31A.65.65,0,0,1,56.05,41.82Z"/></g><g id="Group_872" data-name="Group 872"><path id="Path_603" data-name="Path 603" class="cls-7" d="M56.5,44.89h-.06V45h.06Z"/></g><g id="Group_873" data-name="Group 873"><path id="Path_604" data-name="Path 604" class="cls-7" d="M55.84,43.33l-.08.05.13,1a.46.46,0,0,1,.2.05.65.65,0,0,1,0-.2.51.51,0,0,1,.26-.26l-.08-.67A.84.84,0,0,1,55.84,43.33Z"/></g><g id="Group_874" data-name="Group 874"><path id="Path_605" data-name="Path 605" class="cls-7" d="M68.57,45.17v.14a1,1,0,0,1,.29-.07V45.1a.77.77,0,0,1-.12-.28h-.29l0,.32Z"/></g><g id="Group_875" data-name="Group 875"><path id="Path_606" data-name="Path 606" class="cls-7" d="M64.09,47.05,64,46.74a1,1,0,0,1,0-.17l-1.52.18.05.21a.75.75,0,0,1-.08.53.08.08,0,0,0,0,0v0h.1l.17-.18,0,.15,6.11-.72a.38.38,0,0,0,.33-.42l0-.22a1.41,1.41,0,0,1-.54.11h-.25l-.07-.17L68,45.92h0a1,1,0,0,1-.48,0l-.28-.07v-.3a.17.17,0,0,0,0-.07l-.08,0-.07,0-.42.22.71.41-1.88.23a.64.64,0,0,1-.46.24h-.09a.37.37,0,0,1-.08.18.57.57,0,0,1-.36.2h0Z"/></g><g id="Group_876" data-name="Group 876"><path id="Path_607" data-name="Path 607" class="cls-7" d="M62.92,43.64l2.79,1.61a.5.5,0,0,1,.75.17v-.23a.61.61,0,0,1,0-.13l-3.16-1.82.78-.74a2.47,2.47,0,0,1-.6-.19l-1.2,1.14-1.63-.93h0l.34.76-.65-.77-.12,0a.56.56,0,0,1-.3-.12.5.5,0,0,1-.2-.29.54.54,0,0,1-.1-.16l-1.74-1-.1.11,0,0h0a.38.38,0,0,1,.23.11l.18,0,.12.1a.52.52,0,0,1,.18.41l0,.25,1.29.74a.4.4,0,0,1,.37.22l1.12.64-1.2,1.15a.33.33,0,0,1,0,.14.41.41,0,0,1-.37.35h-.15l-1,.95a1.12,1.12,0,0,1,.46.17l.09.07,1.84-1.75-.06-.18a.54.54,0,0,1,.15-.57l.16-.17.23.06a.43.43,0,0,1,.24.18l.11-.11.63.36Z"/></g><g id="Group_877" data-name="Group 877"><path id="Path_608" data-name="Path 608" class="cls-7" d="M57.41,48l.13.1L60,47.85a.27.27,0,0,1,0-.12l-.07-.58.45.14a.65.65,0,0,1,.53,0l.18.09,0,.2a.43.43,0,0,1,0,.16l.67-.08a.5.5,0,0,1-.12-.33.74.74,0,0,1,.22-.48l-3.74.45.22-.21L58.1,47a.57.57,0,0,1-.3-.23l-1,.91L56.63,46h0l-.16-.1-.15.33L56.07,46l.24,2a.36.36,0,0,0,.2.29l0-.15.37,0L57,48A.46.46,0,0,1,57.41,48Z"/></g><g id="Group_878" data-name="Group 878"><path id="Path_609" data-name="Path 609" class="cls-7" d="M46.83,33.68s0-.1-.09-.16h-.15l0,.3,0,.17.14,0A.53.53,0,0,1,46.83,33.68Z"/></g><g id="Group_879" data-name="Group 879"><path id="Path_610" data-name="Path 610" class="cls-7" d="M44.28,33.44l.06.05,1.39-.62a1.3,1.3,0,0,0-1.11.35l0,.05,0,0-.13-.08,0,0-.12.22Z"/></g><g id="Group_880" data-name="Group 880"><path id="Path_611" data-name="Path 611" class="cls-7" d="M45.2,36.1h0Z"/></g><g id="Group_881" data-name="Group 881"><path id="Path_612" data-name="Path 612" class="cls-7" d="M44.7,36.1l.4-.05a5.37,5.37,0,0,1-1.16-.86l-.48,0-.1.21Z"/></g><g id="Group_882" data-name="Group 882"><path id="Path_613" data-name="Path 613" class="cls-7" d="M46.3,36.63a1.41,1.41,0,0,1-.42-.22.38.38,0,0,1-.17.08l0,0a.37.37,0,0,1,0,.11l1.25.62.19-.38-.1,0-.13,0a.47.47,0,0,1-.31.11h-.17l-.11-.13A.42.42,0,0,1,46.3,36.63Z"/></g><g id="Group_883" data-name="Group 883"><path id="Path_614" data-name="Path 614" class="cls-7" d="M44.53,34.16l-.2.14h0l.08.08,0,0,.12-.23Z"/></g><g id="Group_884" data-name="Group 884"><path id="Path_615" data-name="Path 615" class="cls-7" d="M45.58,36.3a.16.16,0,0,0,.1,0l-.21-.07A.16.16,0,0,0,45.58,36.3Z"/></g><g id="Group_885" data-name="Group 885"><path id="Path_616" data-name="Path 616" class="cls-7" d="M48,32.69a.41.41,0,0,1,.15.4.58.58,0,0,1,0,.14,2,2,0,0,0,.84,0,.67.67,0,0,1,.53-.4h0s0-.07,0-.1H49.3l0-.23a1.43,1.43,0,0,1-1,.17.52.52,0,0,1-.16.06Z"/></g><g id="Group_886" data-name="Group 886"><path id="Path_617" data-name="Path 617" class="cls-7" d="M46.9,31l-.14.05-.11,0-.32.3a2,2,0,0,0,.06.26.55.55,0,0,1,.38,0l.26.07,0,.27a.61.61,0,0,1-.1.45l.25.14a.49.49,0,0,1,.17.18l0,0,.08-.4.17.1a.29.29,0,0,1,0-.1.61.61,0,0,1-.16-.12A1.54,1.54,0,0,1,46.9,31Z"/></g><g id="Group_887" data-name="Group 887"><path id="Path_618" data-name="Path 618" class="cls-7" d="M49.05,29.55h0v0S49.05,29.54,49.05,29.55Z"/></g><g id="Group_888" data-name="Group 888"><path id="Path_619" data-name="Path 619" class="cls-7" d="M50.46,27.86a.6.6,0,0,1-.11-.34l-.2-.07,0,.1-.23.05h-.11a1.07,1.07,0,0,0,.2.63,1,1,0,0,0,.33.31.93.93,0,0,1,.29-.05l.5-.45A.58.58,0,0,1,50.46,27.86Z"/></g><g id="Group_889" data-name="Group 889"><path id="Path_620" data-name="Path 620" class="cls-7" d="M53.76,28.22a1,1,0,0,0-.14-.28c-.47-.67-1.18-.39-1.86-.11-.13,0-.25.1-.37.13l-.07.28a.85.85,0,0,1,.3-.15L52,28l.05.24h.07l0-.2.26.14a.93.93,0,0,1,.23,0l0-.23.65.35Z"/></g><g id="Group_890" data-name="Group 890"><path id="Path_621" data-name="Path 621" class="cls-7" d="M53.63,28.46h.18a.85.85,0,0,0,0-.22Z"/></g><g id="Group_891" data-name="Group 891"><path id="Path_622" data-name="Path 622" class="cls-7" d="M51.38,26.07l-.43.64A2.52,2.52,0,0,1,52,26.32l-.11-.48a2.68,2.68,0,0,0-1.27.49l-.2.15Z"/></g><g id="Group_892" data-name="Group 892"><path id="Path_623" data-name="Path 623" class="cls-7" d="M53.49,29.38,53,29.14a2.17,2.17,0,0,1-.36.32,2.6,2.6,0,0,1-1.37.45l.1.49A2.79,2.79,0,0,0,53,29.86,2.43,2.43,0,0,0,53.49,29.38Z"/></g><g id="Group_893" data-name="Group 893"><path id="Path_624" data-name="Path 624" class="cls-7" d="M53.52,29.34l.08-.12a.27.27,0,0,1-.08-.07l0,0Z"/></g><g id="Group_894" data-name="Group 894"><path id="Path_625" data-name="Path 625" class="cls-7" d="M53.09,25.28a.75.75,0,0,1-.5-.16l-.17.07.2.46,1.3-.57,1.47,3.3.57-.26-1.46-3.3.75-.33a1.17,1.17,0,0,1-.1-.41V24l-1.64.72a.49.49,0,0,1-.22.5A.5.5,0,0,1,53.09,25.28Z"/></g><g id="Group_895" data-name="Group 895"><path id="Path_626" data-name="Path 626" class="cls-7" d="M58.3,25.77a.19.19,0,0,0,0,.07h0l0,.06v-.26h.24a.21.21,0,0,0-.13,0h0A.18.18,0,0,0,58.3,25.77Z"/></g><g id="Group_896" data-name="Group 896"><path id="Path_627" data-name="Path 627" class="cls-7" d="M58.33,24.18h-.09a2.23,2.23,0,0,0-.12,1,1.7,1.7,0,0,0,0,.22h.31a.41.41,0,0,1,.06.81h0a2.1,2.1,0,0,0,1.42.82l.48-.06V27h.13l.2,0a.52.52,0,0,1,.06-.34l.09-.17h.16a.67.67,0,0,1,.37-.15l.3,0,.07.22a1.29,1.29,0,0,0,.17-.16.51.51,0,0,1,.22-.48.47.47,0,0,1,.15-.06,1.76,1.76,0,0,0,.15-.44c-.21,0-.42,0-.62,0a1.6,1.6,0,0,1-3.13-.25,1.56,1.56,0,0,1,1.32-1.74h.09a1.54,1.54,0,0,1,1.68,1.07l.34,0h.32a2.1,2.1,0,0,0-2.39-1.62l-.14,0-.11.2-.07-.17a2.29,2.29,0,0,0-1.13.64h0a.77.77,0,0,1,0,.37l0,.25-.25.05Z"/></g><g id="Group_897" data-name="Group 897"><path id="Path_628" data-name="Path 628" class="cls-7" d="M66.36,23.17l-.1-.07L65,22.93l.22.17h0l.14.1.3-.05v.09a.41.41,0,0,1,.29.16.53.53,0,0,1,.08.17l.59.08,0-.4A.46.46,0,0,1,66.36,23.17Z"/></g><g id="Group_898" data-name="Group 898"><path id="Path_629" data-name="Path 629" class="cls-7" d="M64,25.85a.53.53,0,0,1,0-.35l0-.13h0v-.07h.1a.54.54,0,0,1,.43,0l.1,0v0l.1,0v-.08l.32-.09s0-.05.06-.07l0-.08-1.09-.15.16-1.13h0l-.08-.21a.5.5,0,0,1,.15-.59l0,0-.57-.08-.22,1.65h.19v0l.18,0,.1.8-.59.06,0,.21a.52.52,0,0,1,.19.12.59.59,0,0,1,.13.51l0,.16-.13.09a.5.5,0,0,1-.29.09l0,.39.61.09Z"/></g><g id="Group_899" data-name="Group 899"><path id="Path_630" data-name="Path 630" class="cls-7" d="M66,25.53l0,0h.08l0-.14h0Z"/></g><g id="Group_900" data-name="Group 900"><path id="Path_631" data-name="Path 631" class="cls-7" d="M69.19,24.49l.49.17,0,0a.64.64,0,0,1,.65-.24l.11,0L69.27,24a.71.71,0,0,1,0,.25A.77.77,0,0,1,69.19,24.49Z"/></g><g id="Group_901" data-name="Group 901"><path id="Path_632" data-name="Path 632" class="cls-7" d="M70.59,24.56l0,0,0-.12-.14-.05Z"/></g><g id="Group_903" data-name="Group 903"><path id="Path_634" data-name="Path 634" class="cls-7" d="M67.94,23.51l-.07,0-.07.18A.54.54,0,0,1,67.94,23.51Z"/></g><g id="Group_905" data-name="Group 905"><path id="Path_636" data-name="Path 636" class="cls-7" d="M66.75,26.61l-.26.75.59.21L67.63,26l1.07.38v0a.39.39,0,0,1-.16-.1h-.05a.51.51,0,0,1-.33-.5v-.09l-.36-.12.28-.79L68,24.72l-.1,0,0,0a.5.5,0,0,1-.16.4l-.14.14h0a.62.62,0,0,1-.17.22h0a.53.53,0,0,1,0,.35l.08.34-.13,0a.28.28,0,0,1,0,.09l0,.28-.29,0A.52.52,0,0,1,66.75,26.61Z"/></g><g id="Group_906" data-name="Group 906"><path id="Path_637" data-name="Path 637" class="cls-7" d="M69.55,26.17h0l0,.09v.06a.39.39,0,0,1-.09.33l0,0,.07,0,.17-.48Z"/></g><g id="Group_907" data-name="Group 907"><path id="Path_638" data-name="Path 638" class="cls-7" d="M70.41,27.14h0l-.79,1.49.55.29,1-1.86Z"/></g><g id="Group_908" data-name="Group 908"><path id="Path_639" data-name="Path 639" class="cls-7" d="M71.24,26.22l-.06.5a0,0,0,0,1,0,0l0,.23.91-1.69-.55-.3-.69,1.29Z"/></g><g id="Group_909" data-name="Group 909"><path id="Path_640" data-name="Path 640" class="cls-7" d="M75.12,28.09a2,2,0,0,1,.17.53l.53-.05a2,2,0,0,0-.67-1.29l-.06.53.19-.08Z"/></g><g id="Group_910" data-name="Group 910"><path id="Path_641" data-name="Path 641" class="cls-7" d="M74.46,27l-.3-.3,0,0a1.93,1.93,0,0,0-.63-.1,2.06,2.06,0,0,0-1.65.83,2.31,2.31,0,0,0-.28.48h.1a.44.44,0,0,1,.37-.21h.3l0,.11a1.54,1.54,0,0,1,1.4-.61l.29,0,0,.1a1.83,1.83,0,0,1,.53.29,1.52,1.52,0,0,1,.31.31h0l-.34-.71A.57.57,0,0,1,74.46,27Z"/></g><g id="Group_911" data-name="Group 911"><path id="Path_642" data-name="Path 642" class="cls-7" d="M73.45,30.7a1.51,1.51,0,0,1-.11.22,1.88,1.88,0,0,0,.67,0L74,30.65l-.3,0A.74.74,0,0,1,73.45,30.7Z"/></g><g id="Group_912" data-name="Group 912"><path id="Path_643" data-name="Path 643" class="cls-7" d="M72.05,28.59l0,0h0Z"/></g><g id="Group_913" data-name="Group 913"><path id="Path_644" data-name="Path 644" class="cls-7" d="M72.17,29.36l0,0L72,29.25l0-.14a.51.51,0,0,1,0-.42l-.16,0,0,.17-.37,0a2.21,2.21,0,0,0,.32.9v0l.08-.09a.51.51,0,0,1,.38-.2Z"/></g><g id="Group_914" data-name="Group 914"><path id="Path_645" data-name="Path 645" class="cls-7" d="M77.87,30.15a.38.38,0,0,1-.29-.2.39.39,0,0,1,0-.24l-.09-.19-.36-.44-.64.53.33,0,.06.52.26-.21,1.18,1.44a1.46,1.46,0,0,1,.48-.21L78,30.17Z"/></g><g id="Group_915" data-name="Group 915"><path id="Path_646" data-name="Path 646" class="cls-7" d="M75.86,33.41l.13.18-.09.2v0l.12.1.21-.18-1.53-1.87.39-.32a1.36,1.36,0,0,1-.68-.24l-.49.4.07.08.09,0a.4.4,0,0,1,.45.16.42.42,0,0,1,0,.43.36.36,0,0,1,0,.11l.56.68h0l.22.1h.05A.57.57,0,0,1,75.86,33.41Z"/></g><g id="Group_917" data-name="Group 917"><path id="Path_648" data-name="Path 648" class="cls-7" d="M76,30l-.19.15h0l.17,0,0,.16-.05.16-.27-.08.11.07a.87.87,0,0,1,.36.7h0a.19.19,0,0,0,0,.08l.06.36h-.08l.85,1,.38-.31L76.1,30.69l.29-.23-.3,0Z"/></g><g id="Group_918" data-name="Group 918"><path id="Path_649" data-name="Path 649" class="cls-7" d="M50.29,58.43v0h0a.08.08,0,0,0,0,0h0v0Z"/></g><g id="Group_919" data-name="Group 919"><path id="Path_650" data-name="Path 650" class="cls-7" d="M55.17,60.15h0a.33.33,0,0,1,.17-.14l0,0s0,0,0-.06a.57.57,0,0,1,.39-.38,1.3,1.3,0,0,1,.78.06,2.28,2.28,0,0,1,.45.2l.06,0,.14,0a.59.59,0,0,1,.14.06l.29.16,0,0,.14,0L58.1,60l0,.18,1.08.15L59,62a.66.66,0,0,1,.06.2v.34l-.15,0,0,.25a.17.17,0,0,1,0,.1l.07.28-.12,0-.09.67.61.08.5-3.55,1.4.2.07-.49-3.41-.48,0,.21-.12-.11a2.77,2.77,0,0,0-1-.57c-1.15-.36-1.74.09-1.91.64a1.27,1.27,0,0,0-.06.28.56.56,0,0,1,.42.08Z"/></g><g id="Group_920" data-name="Group 920"><path id="Path_651" data-name="Path 651" class="cls-7" d="M55.47,60.56h0Z"/></g><g id="Group_921" data-name="Group 921"><path id="Path_652" data-name="Path 652" class="cls-7" d="M65.7,63.48v0Z"/></g><g id="Group_922" data-name="Group 922"><path id="Path_653" data-name="Path 653" class="cls-7" d="M66.74,62.05a.44.44,0,0,1,.22-.28,1,1,0,0,0,0-.16,2.56,2.56,0,0,0,0-.27l-.11,0v0l-.5.06a1.18,1.18,0,0,1,0,.2,1.53,1.53,0,0,1-1.27,1.76l-.09,0a1.54,1.54,0,0,1-1.76-1.26.37.37,0,0,1,0-.11,1.54,1.54,0,0,1,1.26-1.76h.1a1.57,1.57,0,0,1,1.36.47v-.12l.64-.07a2.1,2.1,0,0,0-1.72-.82l-.34,0a2.1,2.1,0,0,0-1.93,2.24.78.78,0,0,0,0,.14,2.05,2.05,0,0,0,.81,1.41A2.25,2.25,0,0,0,65,64a1.61,1.61,0,0,0,.38-.08v-.24a.38.38,0,0,1,.36-.42h.06a.53.53,0,0,1,.49-.23h.33a2.12,2.12,0,0,0,.23-.48l0,0A.46.46,0,0,1,66.74,62.05Z"/></g><g id="Group_923" data-name="Group 923"><path id="Path_654" data-name="Path 654" class="cls-7" d="M70.16,60.37l-.07,0,.15.2Z"/></g><g id="Group_924" data-name="Group 924"><path id="Path_655" data-name="Path 655" class="cls-7" d="M69.36,58.82l.06-.1a.44.44,0,0,1-.27-.07l-1,.36a.58.58,0,0,1-.09.25l-.09.34,1.36-.48v0h0l0-.11h.09l-.08,0,0-.13Z"/></g><g id="Group_925" data-name="Group 925"><path id="Path_656" data-name="Path 656" class="cls-7" d="M67.35,59.8a.81.81,0,0,1,.4-.07l0-.06h0l-.32-.22a.57.57,0,0,1-.13-.14l-.34.12.13.38.14,0,.09,0,0,.08h0Z"/></g><g id="Group_926" data-name="Group 926"><path id="Path_657" data-name="Path 657" class="cls-7" d="M68.28,61l.2.17a.43.43,0,0,1,.14.23l.08,0a.37.37,0,0,1,.37-.37h0a.38.38,0,0,1,.28.14l.22-.08a.33.33,0,0,1,0-.17l-.15-.1a.25.25,0,0,0-.22-.12l-.83.3,0,.08,0-.08Z"/></g><g id="Group_927" data-name="Group 927"><path id="Path_658" data-name="Path 658" class="cls-7" d="M68.32,62.08l-.15.07L68,62.07A.41.41,0,0,1,67.9,62l.34,1h.16v0h.12a.39.39,0,0,1,.25.12l.16-.06-.4-1.14A.42.42,0,0,1,68.32,62.08Z"/></g><g id="Group_928" data-name="Group 928"><path id="Path_659" data-name="Path 659" class="cls-7" d="M67.89,61.19h0l0-.16L67.72,61a.37.37,0,0,1-.25-.21h0l.2.55Z"/></g><g id="Group_929" data-name="Group 929"><path id="Path_660" data-name="Path 660" class="cls-7" d="M73.56,59.09l-.25-.44-.33.19a.51.51,0,0,1-.06.48h0a.4.4,0,0,1-.27.14.5.5,0,0,1-.17,0l-.18-.06,0-.13-.44.25.27.42Z"/></g><g id="Group_930" data-name="Group 930"><path id="Path_661" data-name="Path 661" class="cls-7" d="M71.9,61.57l.14.26.54-.31-.12-.22h0l-.08,0Z"/></g><g id="Group_931" data-name="Group 931"><path id="Path_662" data-name="Path 662" class="cls-7" d="M71.83,61.27l-.14-.07.16.28Z"/></g><g id="Group_932" data-name="Group 932"><path id="Path_663" data-name="Path 663" class="cls-7" d="M70.94,57.75l-.4.23V58s0,0,0,0h.28l.1.2a.05.05,0,0,1,0,0l.33-.19L71.12,58A.44.44,0,0,1,70.94,57.75Z"/></g><g id="Group_933" data-name="Group 933"><path id="Path_664" data-name="Path 664" class="cls-7" d="M71.53,59.67l-.1-.17-.42.1,0-.44a.68.68,0,0,1,.06-.34L71,58.68a.44.44,0,0,1-.59.22h0l1.16,2a.46.46,0,0,1,0-.26l.08-.23h.1l-.15-.81Z"/></g><g id="Group_934" data-name="Group 934"><path id="Path_665" data-name="Path 665" class="cls-7" d="M71.67,57.87l0,0,.63-.35.08-.34.17.19.28-.16-.24-.43-.39.22a.5.5,0,0,1,0,.21.44.44,0,0,1-.32.34h0l0,.12A.64.64,0,0,1,71.67,57.87Z"/></g><g id="Group_935" data-name="Group 935"><path id="Path_666" data-name="Path 666" class="cls-7" d="M72.51,59.11h0Z"/></g><g id="Group_936" data-name="Group 936"><path id="Path_667" data-name="Path 667" class="cls-7" d="M71.79,61l0,0v0Z"/></g><g id="Group_937" data-name="Group 937"><path id="Path_668" data-name="Path 668" class="cls-7" d="M73.62,56.79a.39.39,0,0,1-.4-.37.43.43,0,0,1,.06-.22l-.45.34L75.3,59.8l.5-.37-2-2.63h0a.29.29,0,0,1-.16,0Z"/></g><g id="Group_938" data-name="Group 938"><path id="Path_669" data-name="Path 669" class="cls-7" d="M78,57.15,78,56.83l-.08.1a1.55,1.55,0,0,1-2.18.1L75.62,57a1.77,1.77,0,0,1-.36-.53l-.67-.08a2.12,2.12,0,0,0,.59,1,2.06,2.06,0,0,0,2.93,0A.65.65,0,0,1,78,57.15Z"/></g><g id="Group_939" data-name="Group 939"><path id="Path_670" data-name="Path 670" class="cls-7" d="M74.55,55.9a2.62,2.62,0,0,0,0,.28l.6-.1a1.65,1.65,0,0,1,1.43-1.85h.17v-.53h0a2.11,2.11,0,0,0-1.49.67A2.26,2.26,0,0,0,74.55,55.9Z"/></g><g id="Group_940" data-name="Group 940"><path id="Path_671" data-name="Path 671" class="cls-7" d="M78.64,56.76a1.89,1.89,0,0,0,.24-1h-.41l-.13.12a1.47,1.47,0,0,1-.27.79h.33A.43.43,0,0,1,78.64,56.76Z"/></g><g id="Group_941" data-name="Group 941"><path id="Path_672" data-name="Path 672" class="cls-7" d="M78.75,53.74,79.89,52l-.4-.27-1.14,1.71-1.06-.7,1.28-1.93-.41-.27L76.54,53l3.4,2.25,1.67-2.52-.41-.27-1.33,2Z"/></g><g id="Group_942" data-name="Group 942"><path id="Path_673" data-name="Path 673" class="cls-7" d="M12.06,30h-.29a.31.31,0,0,1-.23,0h-.06A.84.84,0,0,0,11,30a8,8,0,0,1,1.2.1A.4.4,0,0,1,12.06,30Z"/></g><g id="Group_943" data-name="Group 943"><path id="Path_674" data-name="Path 674" class="cls-7" d="M14.48,30.25h0l-.06.3-.31-.06a.38.38,0,0,1-.3-.15l-.07-.09v-.1A.35.35,0,0,1,13.8,30l-.38-.13a.58.58,0,0,1,.11.46l0,.15a9.43,9.43,0,0,1,1.75.85l.1,0,0,.08a.33.33,0,0,1,.29.13s0,.05,0,.08l1,.64.43.3a.29.29,0,0,1,.16,0h0a.47.47,0,0,1,.14-.45L17,31.76A17.67,17.67,0,0,0,14.48,30.25Z"/></g><g id="Group_944" data-name="Group 944"><path id="Path_675" data-name="Path 675" class="cls-7" d="M18.51,32.76l-.06,0,0,.05Z"/></g><g id="Group_945" data-name="Group 945"><path id="Path_676" data-name="Path 676" class="cls-7" d="M17.54,32.8c.27.18.55.35.85.53a1.08,1.08,0,0,1,0-.18v-.06l-.05-.3h-.06a.53.53,0,0,1-.5-.12l-.14,0-.11,0A.06.06,0,0,0,17.54,32.8Z"/></g><g id="Group_946" data-name="Group 946"><path id="Path_677" data-name="Path 677" class="cls-7" d="M19.79,33.39l-.17.07-.1-.18c-.15-.06-.3-.14-.46-.22a1.08,1.08,0,0,1,0,.31l0,.3a8.69,8.69,0,0,0,5.07.78h.06a.53.53,0,0,1,0-.53l0,0-.1,0A8.29,8.29,0,0,1,19.79,33.39Z"/></g><g id="Group_947" data-name="Group 947"><path id="Path_678" data-name="Path 678" class="cls-7" d="M1.38,34.93h.24a.42.42,0,0,1,.31.22c.46-.44.88-.9,1.28-1.34A19.22,19.22,0,0,1,5,32v-.18h.24a7.74,7.74,0,0,1,2.7-1.4.37.37,0,0,1-.17-.18.36.36,0,0,1,0-.35,8.46,8.46,0,0,0-.8.28.3.3,0,0,1-.09.13.35.35,0,0,1-.38.07A9.13,9.13,0,0,0,4.29,31.9a.3.3,0,0,1-.14.27.24.24,0,0,1-.13,0H4c-.23.23-.46.47-.75.79A.49.49,0,0,1,3,33.2l0,0-.21.23C2.33,34,1.87,34.47,1.38,34.93Z"/></g><g id="Group_948" data-name="Group 948"><path id="Path_679" data-name="Path 679" class="cls-7" d="M9.28,29.77v-.21a10.05,10.05,0,0,0-1.07.2h0a.37.37,0,0,1,.16.3l.07.19.76-.14h0l-.26,0Z"/></g><g id="Group_949" data-name="Group 949"><path id="Path_680" data-name="Path 680" class="cls-7" d="M1.43,35.62l-.05,0a.43.43,0,0,1-.09-.39l0-.23A8.76,8.76,0,0,1,0,36l.07.6A8.69,8.69,0,0,0,1.43,35.62Z"/></g><g id="Group_950" data-name="Group 950"><path id="Path_681" data-name="Path 681" class="cls-7" d="M44,28.19a.51.51,0,0,1,.15.07h.33c.39-.45.79-.88,1.2-1.31l-.24.06-.08,0a.59.59,0,0,1-.32-.06L45,26.93l-.32.34.09.2a.43.43,0,0,1-.11.55l-.08.11h-.2a.41.41,0,0,1-.32-.15L44,28v.09A.56.56,0,0,1,44,28.19Z"/></g><g id="Group_951" data-name="Group 951"><path id="Path_682" data-name="Path 682" class="cls-7" d="M44.94,29.28a.42.42,0,0,1,.14-.09.66.66,0,0,1,.17-.29l-.63-.43-.11-.07-.06.31a.57.57,0,0,1-.11.22v0l.14.1A.61.61,0,0,1,44.94,29.28Z"/></g><g id="Group_952" data-name="Group 952"><path id="Path_683" data-name="Path 683" class="cls-7" d="M46.21,26.33,46.13,26a.6.6,0,0,1,0-.23l-.51.49a.43.43,0,0,1,.15.28l.07.28c.19-.19.37-.37.56-.54Z"/></g><g id="Group_953" data-name="Group 953"><path id="Path_684" data-name="Path 684" class="cls-7" d="M48.66,30.5a7.84,7.84,0,0,1-1.27-.41L47.27,30l.09-.09a1.37,1.37,0,0,1,.29-.24l-.27-.47a3.62,3.62,0,0,0-.42.36l.06.06-.18.28-.06.08a1.12,1.12,0,0,1,.1.22H47l.87.12-.42.33a7.92,7.92,0,0,0,.78.26l.13,0h.1a.7.7,0,0,1,.25,0,.36.36,0,0,1,0-.25Z"/></g><g id="Group_954" data-name="Group 954"><path id="Path_685" data-name="Path 685" class="cls-7" d="M51.7,30.62c-.32,0-.64.06-1,.07h-.07v-.07a2.16,2.16,0,0,0-.7-1.24,2.06,2.06,0,0,0-2.2-.36l0,.63a1.45,1.45,0,0,1,1-.18l.06-.1,0-.29.37.06a.45.45,0,0,1,.27.71h0a1.58,1.58,0,0,1,.48.71l0,.12H50l-.46,0a.65.65,0,0,1,.11.22l.08.36.32,0h.1l0,.1a1.8,1.8,0,0,1-.1.33l.29-.05,0,.46v0l0,.08v0a2.31,2.31,0,0,0,.38-.9v-.07h.07a9.1,9.1,0,0,0,1-.08.27.27,0,0,0-.07-.54Z"/></g><g id="Group_955" data-name="Group 955"><path id="Path_686" data-name="Path 686" class="cls-7" d="M39.74,26.49l0,0v0a0,0,0,0,0,.05,0Z"/></g><g id="Group_956" data-name="Group 956"><path id="Path_687" data-name="Path 687" class="cls-7" d="M38.24,26.57v.14h.21l.65,0,.18-.5,0,0a8.7,8.7,0,0,0-1,0A.53.53,0,0,1,38.24,26.57Z"/></g><g id="Group_957" data-name="Group 957"><path id="Path_688" data-name="Path 688" class="cls-7" d="M39.73,26.8v-.07l-.28,0Z"/></g><g id="Group_958" data-name="Group 958"><path id="Path_689" data-name="Path 689" class="cls-7" d="M29.89,31.57v0a.47.47,0,0,1,0-.51.7.7,0,0,1,.6-.27h.14l.23-.25.58-.64a.39.39,0,0,1-.19-.51l0-.08.08-.1.5-.06,0,.28a8.52,8.52,0,0,1,3.44-2.22.5.5,0,0,1,.15-.45.48.48,0,0,1,.55-.09.61.61,0,0,1,.29.28c.29-.06.6-.11.9-.15l.17,0,.06-.15a.44.44,0,0,1-.12-.4l-.18,0c-3.55.43-5.16,2.2-6.72,3.93a21.41,21.41,0,0,1-1.63,1.67l0,.19h-.18a7.83,7.83,0,0,1-2.82,1.53l0,.17-.6.07a1.39,1.39,0,0,1,.08.46A9,9,0,0,0,29.89,31.57Z"/></g><g id="Group_959" data-name="Group 959"><path id="Path_690" data-name="Path 690" class="cls-7" d="M37.59,26.75h.06l-.1-.05Z"/></g><g id="Group_960" data-name="Group 960"><path id="Path_691" data-name="Path 691" class="cls-7" d="M45.57,33.38l-.12.09h0l.17,0Z"/></g><g id="Group_961" data-name="Group 961"><path id="Path_692" data-name="Path 692" class="cls-7" d="M45.5,33.9l-.26-.17-.07,0-.3.22h.63Z"/></g><g id="Group_962" data-name="Group 962"><path id="Path_693" data-name="Path 693" class="cls-7" d="M25.29,39.51l0,.05-.2,0a1.35,1.35,0,0,1-.92-.33,9.89,9.89,0,0,1-1.44,0l-.08,0,0-.06a10.19,10.19,0,0,1-5-2.18,10.89,10.89,0,0,0-5.24-2.27.35.35,0,0,1-.14,0h-.31l0-.08h-.34a.38.38,0,0,1-.09.34.49.49,0,0,1-.27.15l-.1.07a8.13,8.13,0,0,1,4.8,1.3l0-.2h.27a.58.58,0,0,1,.57.56l0,.2a.4.4,0,0,1,.28.08l.09.07,0,.11v0l.1.07c.41.28.83.57,1.27.84a1,1,0,0,1,.49-.13l.31,0v.32a.41.41,0,0,1-.08.24,8.35,8.35,0,0,0,1.8.75l.07,0,0,.05a9.15,9.15,0,0,0,3.57.22c.25,0,.49-.06.72-.11A.51.51,0,0,1,25.29,39.51Z"/></g><g id="Group_963" data-name="Group 963"><path id="Path_694" data-name="Path 694" class="cls-7" d="M10.68,35.28l0-.21a.44.44,0,0,1,0-.34l-.51.05a8.7,8.7,0,0,0-5.33,2.46.49.49,0,0,1,.06.17l0,.27-.27.07H4.59a.45.45,0,0,1-.25,0c-.32.33-.64.68-.92,1s-.44.49-.68.74l.3,0L3,39.72H3.1l.2-.06.54-.59.59-.65V38l.14.33c.23-.24.43-.45.63-.64h0l.08-.06.39-.34a.45.45,0,0,1,.11-.49.41.41,0,0,1,.46,0l.06,0a8.21,8.21,0,0,1,3.18-1.3h0v-.28l.67-.08,0,.26h0l.47,0Z"/></g><g id="Group_964" data-name="Group 964"><path id="Path_695" data-name="Path 695" class="cls-7" d="M33.47,33.25a.47.47,0,0,0,.16-.21l-.08,0v0a15.76,15.76,0,0,0-2.48,2.35,13.3,13.3,0,0,1-2.73,2.51l.07.31L28,38.14v0l-.12,0a8,8,0,0,1-2.05.78,1.43,1.43,0,0,1,0,.22.29.29,0,0,0,0,.09l0,.23a8.35,8.35,0,0,0,2.75-1.16l0-.12.13,0a10.1,10.1,0,0,0,1.2-1,.37.37,0,0,1-.11-.38l0-.14.13-.06a.63.63,0,0,1,.19,0h.19l.23,0c.28-.29.55-.59.78-.85l.74-.8-.07,0,0-.4.07-.1a.43.43,0,0,1,.27-.15l.06-.18.24,0a.33.33,0,0,1,.19.08V34a.77.77,0,0,1,.5-.68Z"/></g><g id="Group_965" data-name="Group 965"><path id="Path_696" data-name="Path 696" class="cls-7" d="M37.38,32h.1l0,0h-.09Z"/></g><g id="Group_966" data-name="Group 966"><path id="Path_697" data-name="Path 697" class="cls-7" d="M42.15,32v.24a.43.43,0,0,1-.13.3c.15.05.29.12.44.18l.22,0h.1a.5.5,0,0,1,.35.14.59.59,0,0,1,.1.17l-.07-.53A8.37,8.37,0,0,0,42.15,32Z"/></g><g id="Group_967" data-name="Group 967"><path id="Path_698" data-name="Path 698" class="cls-7" d="M41.8,31.14s0,0,.05-.05h0Z"/></g><g id="Group_968" data-name="Group 968"><path id="Path_699" data-name="Path 699" class="cls-7" d="M43.29,28.93c-.36.47-.7,1-1,1.44l.06.07,0,.07v.09a.46.46,0,0,1-.07.3.54.54,0,0,1,.28,0l.12-.18v-.18l.06-.09a.5.5,0,0,1,.2-.15l.38-.54v0l.11-.28.06-.12L43.33,29Z"/></g><g id="Group_969" data-name="Group 969"><path id="Path_700" data-name="Path 700" class="cls-7" d="M41.33,31.84l.08,0,.15-.05a.48.48,0,0,1,.29,0l.18,0v0h0l-.16,0-.09-.12a.45.45,0,0,1-.06-.39l-.22.39,0,.06-.07,0a8.5,8.5,0,0,0-1.6-.28.31.31,0,0,1,0,.08.43.43,0,0,1-.19.45h0c.24,0,.48,0,.72.08l0-.06.34,0A.54.54,0,0,1,41.33,31.84Z"/></g><g id="Group_970" data-name="Group 970"><path id="Path_701" data-name="Path 701" class="cls-7" d="M48.53,35.54h0a.19.19,0,0,1,0,.12.08.08,0,0,0,0-.07Z"/></g><g id="Group_972" data-name="Group 972"><path id="Path_703" data-name="Path 703" class="cls-7" d="M1.14,41.57a3.69,3.69,0,0,0,.4-.29.36.36,0,0,1-.16-.22l0,.09a.48.48,0,0,1-.25.35Z"/></g><g id="Group_973" data-name="Group 973"><path id="Path_704" data-name="Path 704" class="cls-7" d="M39.31,31.48a.09.09,0,0,0,0,.18.26.26,0,0,1,0-.15Z"/></g><g id="Group_974" data-name="Group 974"><path id="Path_705" data-name="Path 705" class="cls-7" d="M2.21,40.36l-.06,0,.06,0Z"/></g><g id="Group_975" data-name="Group 975"><path id="Path_706" data-name="Path 706" class="cls-7" d="M52.47,36h0l-.07,0h.15Z"/></g><g id="Group_976" data-name="Group 976"><path id="Path_707" data-name="Path 707" class="cls-7" d="M48.32,41l0,0h0Z"/></g><g id="Group_977" data-name="Group 977"><path id="Path_708" data-name="Path 708" class="cls-7" d="M47,40.23a.4.4,0,0,1,.24-.33h0c-.48-.29-.94-.6-1.39-.91h0l0,.4-.38.05h0c.4.27.81.56,1.24.82Z"/></g><g id="Group_978" data-name="Group 978"><path id="Path_709" data-name="Path 709" class="cls-7" d="M53.06,41.51l-.1-.07,0,.06a.15.15,0,0,0,.1.06v0Z"/></g><g id="Group_979" data-name="Group 979"><path id="Path_710" data-name="Path 710" class="cls-7" d="M41.42,36.83v.1l0,.11a.12.12,0,0,0,0-.12.24.24,0,0,0,0-.1Z"/></g><g id="Group_980" data-name="Group 980"><path id="Path_711" data-name="Path 711" class="cls-7" d="M35.34,38l.2-.43s0,0,0,0c-.19.08-.37.18-.55.27l.08,0A.65.65,0,0,1,35.34,38Z"/></g><g id="Group_981" data-name="Group 981"><path id="Path_712" data-name="Path 712" class="cls-7" d="M34.6,38.68l0,0-.12-.34.12,0a.45.45,0,0,1,0-.28,9.87,9.87,0,0,0-1.81,1.47l.1.08a.5.5,0,0,1,.22-.36.4.4,0,0,1,.41,0h0l0,0,0-.1v.07l.06,0a.43.43,0,0,1,.4,0C34.23,39,34.41,38.81,34.6,38.68Z"/></g><g id="Group_982" data-name="Group 982"><path id="Path_713" data-name="Path 713" class="cls-7" d="M32.9,39.66v0l-.17.22h.08a.52.52,0,0,1,.11-.1A.3.3,0,0,1,32.9,39.66Z"/></g><g id="Group_983" data-name="Group 983"><path id="Path_714" data-name="Path 714" class="cls-7" d="M51,41.45H51l0,0H51Z"/></g><g id="Group_984" data-name="Group 984"><path id="Path_715" data-name="Path 715" class="cls-7" d="M32.59,40.5a.36.36,0,0,1-.37-.35v-.07l-.29.32.06,0,.2.09v.2A.34.34,0,0,1,32,41a1.06,1.06,0,0,0-.41.1.37.37,0,0,1-.18,0l-.16,0a8.77,8.77,0,0,1-5.94,3.27A8.25,8.25,0,0,1,21,43.88v0a.76.76,0,0,1,0,.3,2.41,2.41,0,0,1,.15.33l.41.14a.47.47,0,0,1,.36-.1l.19,0,.07.19s0,0,0,0l.18,0a.14.14,0,0,1,0-.06h0l.11-.23.25.07a.36.36,0,0,1,.26.33,10.59,10.59,0,0,0,2.32,0,8.66,8.66,0,0,0,5.07-2.23l-.31-.24L30.5,42l.38.3,0-.23.16.1c.38-.38.75-.79,1.07-1.15Z"/></g><g id="Group_986" data-name="Group 986"><path id="Path_717" data-name="Path 717" class="cls-7" d="M48.93,41.17v.23a.29.29,0,0,1,.16,0l.07-.2.2,0h.13l0,0-.26,0A.44.44,0,0,1,48.93,41.17Z"/></g><g id="Group_987" data-name="Group 987"><path id="Path_718" data-name="Path 718" class="cls-7" d="M49.56,41.1h.16a.46.46,0,0,1,.21.08l0-.11.24,0L49.81,41l-.07.09Z"/></g><g id="Group_988" data-name="Group 988"><path id="Path_719" data-name="Path 719" class="cls-7" d="M20.13,44.08l0-.33.17-.08v0l-.06-.13a17.16,17.16,0,0,1-1.58-1,5.48,5.48,0,0,0-.52.31l.31.21.26-.33.47.37-.22.3c.39.25.78.48,1.19.69Z"/></g><g id="Group_989" data-name="Group 989"><path id="Path_720" data-name="Path 720" class="cls-7" d="M16.71,41.47l-.25-.21-.25-.1a2.77,2.77,0,0,0-.7-.18l0,.06-.06.19.12.06,0,0,.58,0-.2.17a16.67,16.67,0,0,1,1.52.93l.4-.24.12-.07-.64-.43.08.66-.66-1Z"/></g><g id="Group_990" data-name="Group 990"><path id="Path_721" data-name="Path 721" class="cls-7" d="M14.89,41h0Z"/></g><g id="Group_991" data-name="Group 991"><path id="Path_722" data-name="Path 722" class="cls-7" d="M5.59,42.68l0-.16.27,0,.12,0h.12a8.28,8.28,0,0,1,4.7-2,9.12,9.12,0,0,1,2.66,0l0-.11.27-.06a.47.47,0,0,1,.17,0l.11-.26c-.31-.07-.62-.12-.93-.16a.44.44,0,0,1-.33.18,1.33,1.33,0,0,1-.2,0h-.05c-.21,0-.42,0-.63,0H11V40l-.24,0a8.91,8.91,0,0,0-5.57,2.7h.06v0H5.5Z"/></g><g id="Group_992" data-name="Group 992"><path id="Path_723" data-name="Path 723" class="cls-7" d="M4.42,44.18l-.06.26.1-.12L5,43.69H5a.41.41,0,0,1,.07-.22h0a1.45,1.45,0,0,1-.36,0,.55.55,0,0,1-.22.5Z"/></g><g id="Group_993" data-name="Group 993"><path id="Path_724" data-name="Path 724" class="cls-7" d="M43,37.81l0,.06.19.08h0a.28.28,0,0,1-.11-.08Z"/></g><g id="Group_994" data-name="Group 994"><path id="Path_725" data-name="Path 725" class="cls-7" d="M44.78,38.7l.06,0v-.17l.32,0h0c-.32-.21-.67-.44-1-.65l.08.18a.67.67,0,0,1,0,.52l.43.27A.4.4,0,0,1,44.78,38.7Z"/></g><g id="Group_995" data-name="Group 995"><path id="Path_726" data-name="Path 726" class="cls-7" d="M43.77,37.67l-.05,0a.08.08,0,0,0,0,0l-.05.1.19,0H44Z"/></g><g id="Group_996" data-name="Group 996"><path id="Path_727" data-name="Path 727" class="cls-7" d="M43.36,38h0l.05,0,0,0Z"/></g><g id="Group_997" data-name="Group 997"><path id="Path_728" data-name="Path 728" class="cls-7" d="M42.51,37.12,42.24,37l-.07,0a.49.49,0,0,1-.44,0l0,.27-.39,0h0c.23.05.46.1.68.17a.38.38,0,0,1,.11-.23A.58.58,0,0,1,42.51,37.12Z"/></g><g id="Group_998" data-name="Group 998"><path id="Path_729" data-name="Path 729" class="cls-7" d="M40.94,37.11l-.06.07a.3.3,0,0,1-.06.11l.35.05A.4.4,0,0,1,40.94,37.11Z"/></g><g id="Group_999" data-name="Group 999"><path id="Path_730" data-name="Path 730" class="cls-7" d="M3.1,45.16s0,.07,0,.1v.24a.8.8,0,0,1,.13.13l.21-.21-.12,0V45.3A.79.79,0,0,1,3.1,45.16Z"/></g><g id="Group_1000" data-name="Group 1000"><path id="Path_731" data-name="Path 731" class="cls-7" d="M52.83,41.69a.55.55,0,0,1-.1-.25l-.07-.29a11.22,11.22,0,0,1-1.3,0v.09a.44.44,0,0,1-.45.43h0A9.78,9.78,0,0,0,52.83,41.69Z"/></g><g id="Group_1001" data-name="Group 1001"><path id="Path_732" data-name="Path 732" class="cls-7" d="M2.51,45.78l-.09-.16a8.06,8.06,0,0,1-1,.75.29.29,0,0,1-.2.13h0l0,.37h.12a.31.31,0,0,1,.21.07,9.2,9.2,0,0,0,1.06-.8,1,1,0,0,1-.12-.23Z"/></g><g id="Group_1002" data-name="Group 1002"><path id="Path_733" data-name="Path 733" class="cls-7" d="M3.66,44.51s0-.08,0-.12l-.1.11.12.08A.15.15,0,0,1,3.66,44.51Z"/></g><g id="Group_1003" data-name="Group 1003"><path id="Path_734" data-name="Path 734" class="cls-7" d="M4.2,50.53c.31-.32.6-.64.88-1v0a.82.82,0,0,1-.19-.09l-.05.05,0-.11-.1-.08a.44.44,0,0,0-.1-.08c-.25.29-.51.58-.78.86Z"/></g><g id="Group_1004" data-name="Group 1004"><path id="Path_735" data-name="Path 735" class="cls-7" d="M1.87,51.76h0v0Z"/></g><g id="Group_1005" data-name="Group 1005"><path id="Path_736" data-name="Path 736" class="cls-7" d="M2.16,51.8a.36.36,0,0,1,.13.19.26.26,0,0,1,0,.15A10.12,10.12,0,0,0,3.83,50.9l0-.75a11.43,11.43,0,0,1-1.2,1.1.36.36,0,0,1,0,.23.5.5,0,0,1-.34.31Z"/></g><g id="Group_1006" data-name="Group 1006"><path id="Path_737" data-name="Path 737" class="cls-7" d="M20.53,49.07a.53.53,0,0,1,0-.49c-.57-.32-1.12-.7-1.65-1.06a11.75,11.75,0,0,0-4.42-2.15l-.19.07h-.07a.36.36,0,0,1-.34-.15v0h-.09a.66.66,0,0,1,.06.27v.11l-.07.09a.24.24,0,0,1-.09.08,7.68,7.68,0,0,1,1.78.41.35.35,0,0,1,.22.08h0A15.4,15.4,0,0,1,18.54,48a19.93,19.93,0,0,0,2.3,1.41l0-.14A.39.39,0,0,1,20.53,49.07Z"/></g><g id="Group_1007" data-name="Group 1007"><path id="Path_738" data-name="Path 738" class="cls-7" d="M21.06,49.45H21l.05,0A.08.08,0,0,1,21.06,49.45Z"/></g><g id="Group_1008" data-name="Group 1008"><path id="Path_739" data-name="Path 739" class="cls-7" d="M42.74,42.46h0Z"/></g><g id="Group_1009" data-name="Group 1009"><path id="Path_740" data-name="Path 740" class="cls-7" d="M8.58,46.64l-.17-.06a.56.56,0,0,1,0,.12Z"/></g><g id="Group_1010" data-name="Group 1010"><path id="Path_741" data-name="Path 741" class="cls-7" d="M9.85,45.75l.16,0,.27,0h.25l-.27-.13h0a.65.65,0,0,1-.24,0l-.12.06a3.11,3.11,0,0,1-.55.27V46a.64.64,0,0,0,.28-.06l.08-.13Z"/></g><g id="Group_1011" data-name="Group 1011"><path id="Path_742" data-name="Path 742" class="cls-7" d="M11.4,45.29c-.24,0-.47.06-.71.1l0,.41-.18-.09,0,.27c.29-.06.59-.11.89-.15l.85-.06v0a0,0,0,0,0,0,0l0-.3.29,0,0,0,0,0a.41.41,0,0,1,.37-.07l0,0A10.07,10.07,0,0,0,11.4,45.29Z"/></g><g id="Group_1012" data-name="Group 1012"><path id="Path_743" data-name="Path 743" class="cls-7" d="M38.1,42.68H38A.11.11,0,0,0,38.1,42.68Z"/></g><g id="Group_1013" data-name="Group 1013"><path id="Path_744" data-name="Path 744" class="cls-7" d="M6.74,47.88a8.45,8.45,0,0,1,.75-.59.67.67,0,0,1,0-.28.55.55,0,0,1-.25-.2,12.93,12.93,0,0,0-1.76,1.55l.23,0,.49,0L6.61,48A.49.49,0,0,1,6.74,47.88Z"/></g><g id="Group_1014" data-name="Group 1014"><path id="Path_745" data-name="Path 745" class="cls-7" d="M21.87,49.56a.12.12,0,0,0,.05.07l0,0Z"/></g><g id="Group_1015" data-name="Group 1015"><path id="Path_746" data-name="Path 746" class="cls-7" d="M21.87,49.54v0l0,0a.13.13,0,0,1,.05-.07A.1.1,0,0,0,21.87,49.54Z"/></g><g id="Group_1016" data-name="Group 1016"><path id="Path_747" data-name="Path 747" class="cls-7" d="M30.22,48.64v0h0Z"/></g><g id="Group_1017" data-name="Group 1017"><path id="Path_748" data-name="Path 748" class="cls-7" d="M30.29,48.53a.1.1,0,0,0-.07.1h0l0,0A.13.13,0,0,1,30.29,48.53Z"/></g><g id="Group_1018" data-name="Group 1018"><path id="Path_749" data-name="Path 749" class="cls-7" d="M30.86,47.43a8,8,0,0,1-2.19,1.5l-.05.56s0,0,0,.06a7.19,7.19,0,0,0,1.45-.77L30,48.65,30,48.5a.33.33,0,0,1,.36-.2.32.32,0,0,1,.17.1l.22-.18v-.1h0a.36.36,0,0,1,.36-.23l.23-.22h-.18a.33.33,0,0,1-.37-.25Z"/></g><g id="Group_1019" data-name="Group 1019"><path id="Path_750" data-name="Path 750" class="cls-7" d="M21.7,49.7v0l0,.06.12,0Z"/></g><g id="Group_1020" data-name="Group 1020"><path id="Path_751" data-name="Path 751" class="cls-7" d="M21.51,49.16a.19.19,0,0,0,.17.21.18.18,0,0,0,.2-.13l-.36-.14A.13.13,0,0,1,21.51,49.16Z"/></g><g id="Group_1021" data-name="Group 1021"><path id="Path_752" data-name="Path 752" class="cls-7" d="M31.33,47a.51.51,0,0,1,.18.38l0,.2c.42-.41.81-.84,1.19-1.27.14-.14.27-.29.4-.43l-.14,0-.09-.14a.32.32,0,0,1-.06-.23h0l.06-.16h0l0-.06.18.08,0,0h0a1,1,0,0,1,.17-.1l.32-.21.08.23L34,45v-.05l-.14-.07-.26,0v-.13H33.4c-.38.38-.74.78-1.09,1.16S31.67,46.63,31.33,47Z"/></g><g id="Group_1022" data-name="Group 1022"><path id="Path_753" data-name="Path 753" class="cls-7" d="M27.22,49.63l.42-.1v.37l.28-.09-.19,0,.13-.33a.45.45,0,0,1,.3-.24h0l.37-.2a8.69,8.69,0,0,1-1.86.57l0,.06a.38.38,0,0,1,0,.21h0l.18,0A.69.69,0,0,1,27.22,49.63Z"/></g><g id="Group_1023" data-name="Group 1023"><path id="Path_754" data-name="Path 754" class="cls-7" d="M24.18,49.72v.09a.35.35,0,0,1-.05.33l-.06.08-.09,0h-.05a9.31,9.31,0,0,0,1.67,0l.07-.07a.47.47,0,0,1,.55,0l.07,0,.13,0V50.1l-.1,0a.33.33,0,0,1-.26-.22.37.37,0,0,1,0-.21l-.13,0A9.29,9.29,0,0,1,24.18,49.72Z"/></g><g id="Group_1024" data-name="Group 1024"><path id="Path_755" data-name="Path 755" class="cls-7" d="M23.35,49.63a7.87,7.87,0,0,1-1.09-.26.42.42,0,0,1,0,.15.33.33,0,0,1-.23.34H22a8.07,8.07,0,0,0,1.69.36h0a.57.57,0,0,1-.28-.35Z"/></g><g id="Group_1025" data-name="Group 1025"><path id="Path_756" data-name="Path 756" class="cls-7" d="M1.93,52.17H2l-.08,0h0Z"/></g><g id="Group_1027" data-name="Group 1027"><path id="Path_758" data-name="Path 758" class="cls-7" d="M18.58,52.78h-.06l.07.05Z"/></g><g id="Group_1028" data-name="Group 1028"><path id="Path_759" data-name="Path 759" class="cls-7" d="M8.57,52.23A.51.51,0,0,1,8.63,52l.08-.11.14,0a.38.38,0,0,1,.29.09,6.81,6.81,0,0,1,.78-.34l-.37-.07h0l-.32,0a.52.52,0,0,1-.2-.09A9.6,9.6,0,0,0,6.38,53.3v.07a.11.11,0,0,0,0,.05l0-.07.09,0,.17,0v0h0v0h0v.16h0v.15l-.31.18-.2-.12-.14.3-.22-.24-.53.58a14.86,14.86,0,0,1-2.48,2.34l0,.08a.1.1,0,0,0,.05,0L3,57l.15.18a15.79,15.79,0,0,0,2.52-2.38A12.86,12.86,0,0,1,8.57,52.23Z"/></g><g id="Group_1029" data-name="Group 1029"><path id="Path_760" data-name="Path 760" class="cls-7" d="M9.9,51.13l.18.4a9.13,9.13,0,0,1,2-.44,8.17,8.17,0,0,1,4.37.55l.49-.06,0,.3c.33.17.67.36,1.05.6l.06-.08,0-.25.28,0,.06,0h0a9.28,9.28,0,0,0-4-1.54h-.07a3.15,3.15,0,0,1-.43-.05,11.57,11.57,0,0,0-1.86.06A11.13,11.13,0,0,0,9.89,51,.45.45,0,0,1,9.9,51.13Z"/></g><g id="Group_1030" data-name="Group 1030"><path id="Path_761" data-name="Path 761" class="cls-7" d="M47.66,50V50l0,0,0-.05v0Z"/></g><g id="Group_1031" data-name="Group 1031"><path id="Path_762" data-name="Path 762" class="cls-7" d="M47.7,50.31a.09.09,0,0,1,0-.07h0v0l0,0v.08l0,0Z"/></g><g id="Group_1032" data-name="Group 1032"><path id="Path_763" data-name="Path 763" class="cls-7" d="M49.07,51.08l.08,0h0l0,0h-.14Z"/></g><g id="Group_1033" data-name="Group 1033"><path id="Path_764" data-name="Path 764" class="cls-7" d="M49.07,51.09l0,0,.07,0Z"/></g><g id="Group_1034" data-name="Group 1034"><path id="Path_765" data-name="Path 765" class="cls-7" d="M49.17,51.34h0Z"/></g><g id="Group_1035" data-name="Group 1035"><path id="Path_766" data-name="Path 766" class="cls-7" d="M49.12,51.26v.06h0v-.07Z"/></g><g id="Group_1036" data-name="Group 1036"><path id="Path_767" data-name="Path 767" class="cls-7" d="M3.72,62.53h0a.39.39,0,0,1-.14.08h0a1,1,0,0,1-.35,0l0,.19h.1Z"/></g><g id="Group_1037" data-name="Group 1037"><path id="Path_768" data-name="Path 768" class="cls-7" d="M12.1,56.43h0l0,0h0Z"/></g><g id="Group_1038" data-name="Group 1038"><path id="Path_769" data-name="Path 769" class="cls-7" d="M4.52,61.18l-.6.52h.24l0,.25a.49.49,0,0,1,0,.24l.06,0,0-.09L4.47,62c.18-.15.36-.32.56-.51l-.13,0L5.15,61a.63.63,0,0,1,.5-.22c.23-.24.45-.49.67-.73a18.13,18.13,0,0,1,1.91-1.91H8l-.33,0,0-.29a22.33,22.33,0,0,0-1.81,1.83c-.37.41-.79.88-1.23,1.3,0,0,0,0,0,0A.32.32,0,0,1,4.52,61.18Z"/></g><g id="Group_1039" data-name="Group 1039"><path id="Path_770" data-name="Path 770" class="cls-7" d="M11.21,56.11l-.09.2a.3.3,0,0,1-.25.18h-.1l-.26,0v-.19a8.39,8.39,0,0,0-2.1,1.09h.12l.24,0v.25a.25.25,0,0,1,0,.12,8,8,0,0,1,3.3-1.34.41.41,0,0,1,0-.52l.06-.06a7.38,7.38,0,0,0-1,.21Z"/></g><g id="Group_1040" data-name="Group 1040"><path id="Path_771" data-name="Path 771" class="cls-7" d="M10.86,56.28h0Z"/></g><g id="Group_1041" data-name="Group 1041"><path id="Path_772" data-name="Path 772" class="cls-7" d="M20.62,59l.2.13A.39.39,0,0,0,20.62,59Z"/></g><g id="Group_1042" data-name="Group 1042"><path id="Path_773" data-name="Path 773" class="cls-7" d="M12.6,56h0v0a.57.57,0,0,1,.11.28,8.25,8.25,0,0,1,4.7.71.3.3,0,0,1,.36.18c.45.24.88.5,1.3.78l.12,0,.54.13.31,0,.32,0,0-.07L20.1,58c-1.92-1.31-3.9-2.66-7.46-2.24l-.11,0Z"/></g><g id="Group_1043" data-name="Group 1043"><path id="Path_774" data-name="Path 774" class="cls-7" d="M15.3,61.11,15.17,61h0a10.46,10.46,0,0,0-1.94,0q-.6.08-1.2.21a.48.48,0,0,1-.16.34l-.43.37-.06-.53a8.92,8.92,0,0,0-3.73,2.32l.2,0H8a.48.48,0,0,1,.37.2A8,8,0,0,1,11.49,62l.19-.11,0,0a10.82,10.82,0,0,1,3.3-.39.47.47,0,0,1,0-.16A.6.6,0,0,1,15.3,61.11Z"/></g><g id="Group_1044" data-name="Group 1044"><path id="Path_775" data-name="Path 775" class="cls-7" d="M20.73,63.28a12,12,0,0,0-4.26-2.11.37.37,0,0,1,.08.18l.06.3-.28.05a7.75,7.75,0,0,1,1.94.7v-.1l.48.34a.64.64,0,0,1,.22.14c.42.25.83.53,1.22.8l.06-.1h.32a.81.81,0,0,1,.31,0H21l.06-.05Z"/></g><g id="Group_1045" data-name="Group 1045"><path id="Path_776" data-name="Path 776" class="cls-7" d="M7.72,64.25l0-.1-.13-.25-.32.33v.39L7,64.43,6.55,65a13.3,13.3,0,0,1-2.8,2.55l.07.6a11.57,11.57,0,0,0,2.67-2.26.43.43,0,0,1,.21-.5.4.4,0,0,1,.24,0l-.05-.19h.25l.66-.71A1.3,1.3,0,0,0,7.72,64.25Z"/></g><g id="Group_1046" data-name="Group 1046"><path id="Path_777" data-name="Path 777" class="cls-7" d="M7,65.38H7Z"/></g><g id="Group_1047" data-name="Group 1047"><path id="Path_778" data-name="Path 778" class="cls-7" d="M55.77,62.73l-.37.42a2.2,2.2,0,0,0,1,.07.46.46,0,0,1,.15-.5l.08-.06h.1a.49.49,0,0,1,.33.07h0l0,0a.4.4,0,0,1-.3-.22.49.49,0,0,1,0-.53l.1-.12.3,0a2.62,2.62,0,0,0-1-.85l-.09,0a.5.5,0,0,1-.21,0,.44.44,0,0,1-.29.16h-.21l.43.27c.48.29.94.57.8,1C56.59,62.51,56.41,62.84,55.77,62.73Z"/></g><g id="Group_1048" data-name="Group 1048"><path id="Path_779" data-name="Path 779" class="cls-7" d="M52.18,62a.44.44,0,0,1-.35.24h0v0l-.3,0-.1-.28a.36.36,0,0,1,0-.23A14.12,14.12,0,0,1,48.37,60L48,59.74c-.26.06-.51.11-.77.15h0l.83.56c1.68,1.15,3.42,2.34,6.24,2.31l.5-.38,0,.43h0l.94-.27a.3.3,0,0,0,0-.16.28.28,0,0,0-.31-.25h0c-.25,0-.51.06-.77.07h0l0,0a2.54,2.54,0,0,1-.32-.34L54,62.2h0A7.38,7.38,0,0,1,52.18,62Z"/></g><g id="Group_1050" data-name="Group 1050"><path id="Path_781" data-name="Path 781" class="cls-7" d="M55.3,61l-.06-.14-.07,0Z"/></g></g></g></g></g></svg>